<svg id="Capa_1" enable-background="new 0 0 512 512" height="512" viewBox="0 0 512 512" width="512" xmlns="http://www.w3.org/2000/svg"><g><g><path d="m496.539 238.469h-481.077c-4.397 0-7.962-3.565-7.962-7.962v-29.012c0-4.397 3.565-7.962 7.962-7.962h481.077c4.397 0 7.962 3.565 7.962 7.962v29.012c-.001 4.398-3.565 7.962-7.962 7.962z" fill="#edbf66"/></g><g><path d="m422.887 314.892v-169.652c0-29.919-7.443-59.369-21.66-85.695-8.306-15.381-18.804-29.474-31.165-41.834-3.273-3.274-8.879-1.403-9.531 3.18l-6.248 43.933c-8.274 58.177-12.427 116.865-12.427 175.628v27.124c0 4.01 2.698 7.518 6.573 8.547l27.369 7.27c3.875 1.029 6.573 4.537 6.573 8.547v31.182z" fill="#877f87"/></g><g><path d="m289.743 324.344v-159.695c0-35.842-8.803-55.766-16.388-71.916-4.744-10.1-10.778-19.561-18.161-27.928-8.544-9.682-18.452-17.485-29.412-19.27-2.5-.407-4.774 1.533-4.853 4.065l-7.235 229.468c-.132 4.18 2.636 7.899 6.678 8.973l24.552 6.522c3.94 1.046 6.682 4.613 6.682 8.689v28.84z" fill="#b5adb7"/></g><g><path d="m157.281 330.546v-142.721c0-25.17-6.262-49.944-18.221-72.091-6.987-12.94-15.819-24.795-26.217-35.193-2.754-2.754-7.47-1.18-8.018 2.676l-5.256 36.959c-6.961 48.941-10.454 98.313-10.454 147.747v22.818c0 3.373 2.27 6.324 5.53 7.19l23.024 6.116c3.26.866 5.53 3.817 5.53 7.19v26.232z" fill="#e3e0e4"/></g><g><path d="m496.539 193.534h-25c4.397 0 7.962 3.565 7.962 7.962v29.012c0 4.397-3.565 7.962-7.962 7.962h25c4.397 0 7.962-3.565 7.962-7.962v-29.012c-.001-4.398-3.565-7.962-7.962-7.962z" fill="#d6a74b"/></g><g><path d="m376.227 59.545c14.216 26.326 21.66 55.776 21.66 85.695v166.92h23.269v-166.92c0-29.919-7.443-59.369-21.66-85.695-8.306-15.381-18.804-29.474-31.165-41.834-3.273-3.274-8.879-1.403-9.531 3.18l-1.482 10.417c7.165 8.79 13.508 18.235 18.909 28.237z" fill="#777078"/></g><g><path d="m230.194 64.805c7.383 8.367 13.417 17.828 18.161 27.928 7.585 16.15 16.388 36.073 16.388 71.916v157.298h25v-157.298c0-35.842-8.803-55.766-16.388-71.916-4.744-10.1-10.778-19.561-18.161-27.928-8.544-9.682-18.452-17.485-29.412-19.27-2.5-.407-4.774 1.533-4.853 4.065l-.187 5.925c3.307 2.749 6.465 5.895 9.452 9.28z" fill="#a59da7"/></g><g><path d="m132.281 187.825v134.121h25v-134.121c0-25.17-6.262-49.944-18.221-72.091-6.987-12.94-15.819-24.795-26.217-35.193-2.754-2.754-7.47-1.18-8.018 2.676l-2.087 14.675c4.176 5.673 7.967 11.629 11.323 17.843 11.958 22.146 18.22 46.921 18.22 72.09z" fill="#d4cfd5"/></g><g><path d="m416.356 495.944c-18.769 0-33.984-15.215-33.984-33.984v-154.944h40.515v182.398c0 3.606-2.924 6.53-6.531 6.53z" fill="#fdd27a"/></g><g><path d="m283.212 475.944c-17.456 0-31.607-14.151-31.607-31.607v-127.407h38.137v152.483c.001 3.607-2.923 6.531-6.53 6.531z" fill="#fdd27a"/></g><g><path d="m150.75 470.292c-15.217 0-27.553-12.336-27.553-27.553v-121.376h34.084v142.398c0 3.607-2.924 6.531-6.531 6.531z" fill="#fdd27a"/></g><g><path d="m397.887 307.016v182.398c0 .345-.035.682-.086 1.012 5.336 3.485 11.707 5.518 18.556 5.518 3.607 0 6.531-2.924 6.531-6.531v-182.397z" fill="#edbf66"/></g><g><path d="m264.743 316.93v152.483c0 .184-.013.365-.028.546 5.201 3.761 11.588 5.985 18.497 5.985 3.607 0 6.531-2.924 6.531-6.531v-152.483z" fill="#edbf66"/></g><g><path d="m132.281 321.363v141.82c4.887 4.417 11.363 7.109 18.469 7.109 3.607 0 6.531-2.924 6.531-6.531v-142.398z" fill="#edbf66"/></g><path d="m496.539 186.034h-66.152v-40.794c0-21.728-3.728-43.113-11.08-63.56-1.401-3.898-5.698-5.922-9.595-4.52-3.898 1.401-5.921 5.698-4.52 9.595 6.765 18.814 10.195 38.492 10.195 58.485v154.276h-25.515v-7.576c0-7.4-4.995-13.896-12.148-15.796l-27.369-7.27c-.588-.156-.999-.69-.999-1.298v-27.124c0-58.21 4.156-116.945 12.352-174.572l5.71-40.148c10.704 11.185 19.847 23.741 27.209 37.377 1.968 3.645 6.519 5.004 10.163 3.036 3.645-1.968 5.004-6.518 3.036-10.163-8.656-16.03-19.578-30.691-32.461-43.574-3.537-3.537-8.683-4.751-13.426-3.167-4.745 1.583-8.13 5.643-8.834 10.595l-6.248 43.933c-5.746 40.401-9.526 81.339-11.309 122.266h-38.305v-21.385c0-38.695-10.291-60.606-17.1-75.104-5.197-11.066-11.7-21.059-19.326-29.701-11.233-12.731-22.299-19.833-33.83-21.711-3.298-.537-6.68.379-9.271 2.513-2.616 2.155-4.177 5.333-4.284 8.718l-4.309 136.67h-44.371c-.293-25.721-6.868-51.223-19.094-73.863-7.337-13.588-16.594-26.014-27.513-36.933-3.295-3.296-8.09-4.429-12.513-2.953-4.422 1.475-7.578 5.259-8.234 9.875l-5.256 36.959c-3.151 22.155-5.594 44.503-7.335 66.914h-69.345c-8.526 0-15.462 6.936-15.462 15.461v29.012c0 8.526 6.936 15.462 15.462 15.462h66.392c-.154 7.324-.24 14.644-.24 21.953v22.818c0 6.765 4.566 12.702 11.104 14.439l22.979 6.057v2.626 51.764c0 4.142 3.358 7.5 7.5 7.5s7.5-3.358 7.5-7.5v-36.764h19.083v133.905c-10.609-.507-19.083-9.297-19.083-20.03v-47.111c0-4.142-3.358-7.5-7.5-7.5s-7.5 3.358-7.5 7.5v47.111c0 19.328 15.725 35.053 35.053 35.053 7.737 0 14.031-6.294 14.031-14.03v-217.791h42.453l-1.036 32.862c-.243 7.71 4.793 14.477 12.248 16.457l24.551 6.521c.653.173 1.108.766 1.108 1.441v141.086c0 21.564 17.543 39.107 39.106 39.107 7.737 0 14.031-6.294 14.031-14.031v-223.443h37.113v21.606c0 7.401 4.996 13.896 12.148 15.795l27.368 7.27c.588.156.999.69.999 1.299v170.02c0 22.875 18.61 41.484 41.484 41.484 7.737 0 14.031-6.294 14.031-14.031v-243.443h66.152c8.525 0 15.461-6.936 15.461-15.462v-29.012c.002-8.525-6.934-15.461-15.459-15.461zm-481.077 44.935c-.255 0-.462-.207-.462-.462v-29.012c0-.255.207-.462.462-.462h68.286c-.633 9.975-1.13 19.957-1.481 29.936zm115.235 82.894v-2.626c0-6.765-4.566-12.702-11.104-14.439l-22.979-6.057v-22.818c0-48.913 3.492-98.267 10.379-146.691l4.455-31.323c8.206 8.873 15.261 18.738 21.013 29.39 11.331 20.983 17.32 44.68 17.32 68.527v126.038h-19.084zm34.084-82.894v-29.936h43.87l-.944 29.936zm117.462 237.456c-12.845-.51-23.137-11.119-23.137-24.087v-119.908h23.137zm-23.137-158.995v-6.179c0-7.467-5.041-14.021-12.257-15.938l-24.551-6.521c-.674-.179-1.129-.791-1.107-1.488l7.108-225.447c6.773 2.232 13.91 7.567 21.272 15.91 6.685 7.576 12.404 16.375 16.996 26.154 6.616 14.087 15.677 33.379 15.677 68.727v144.782zm38.137-108.396h37.75c-.316 9.986-.518 19.967-.594 29.936h-37.156zm118.144 287.392c-14.156-.512-25.515-12.188-25.515-26.467v-147.443h25.515zm81.613-257.918c0 .255-.207.462-.461.462h-66.152v-29.936h66.152c.254 0 .461.207.461.462z"/></g></svg>