<?xml version="1.0" encoding="iso-8859-1"?>
<!-- Generator: Adobe Illustrator 19.0.0, SVG Export Plug-In . SVG Version: 6.00 Build 0)  -->
<svg version="1.1" id="Capa_1" xmlns="http://www.w3.org/2000/svg" xmlns:xlink="http://www.w3.org/1999/xlink" x="0px" y="0px"
	 viewBox="0 0 512 512" style="enable-background:new 0 0 512 512;" xml:space="preserve">
<path style="fill:#FFDAAA;" d="M494.472,446.486H17.528c-6.432,0-11.196-5.978-9.759-12.248l61.115-266.749
	c2.574-11.234,12.57-19.198,24.094-19.198h326.047c11.525,0,21.521,7.965,24.094,19.198l61.115,266.749
	C505.668,440.507,500.905,446.486,494.472,446.486z"/>
<g>
	<path style="fill:#FF9478;" d="M37.805,434.237l61.115-266.749c2.574-11.234,12.57-19.199,24.094-19.199H92.976
		c-11.525,0-21.521,7.965-24.094,19.199L7.767,434.237c-1.437,6.27,3.327,12.248,9.759,12.248h30.037
		C41.133,446.486,36.369,440.507,37.805,434.237z"/>
	<path style="fill:#FF9478;" d="M443.117,167.487c-2.574-11.234-12.57-19.199-24.094-19.199H123.002
		c-11.52,0.005-21.51,7.968-24.083,19.199l-9.486,41.402h26.441c17.205,0,31.153,13.948,31.153,31.154v83.5
		c0,12.094,9.804,21.897,21.897,21.897l0,0c12.094,0,21.897-9.804,21.897-21.897v-51.439c0-18.299,14.834-33.133,33.133-33.133l0,0
		c18.299,0,33.133,14.834,33.133,33.133v78.397c0,17.845,14.467,32.312,32.312,32.312c17.846,0,32.312-14.467,32.312-32.312V233.321
		c0-13.331,10.806-24.137,24.137-24.137l0,0c13.331,0,24.137,10.806,24.137,24.137v49.832c0,17.631,14.293,31.923,31.923,31.923l0,0
		c17.631,0,31.923-14.293,31.923-31.923v-69.685c0-9.842,6.191-18.239,14.89-21.508L443.117,167.487z"/>
</g>
<path style="fill:#AA6100;" d="M443.117,167.487c-2.574-11.234-12.57-19.199-24.094-19.199H92.976
	c-11.525,0-21.521,7.965-24.094,19.199l-9.486,41.402h26.441c17.205,0,31.154,13.948,31.154,31.154v83.501
	c0,12.094,9.804,21.897,21.897,21.897l0,0c12.094,0,21.897-9.804,21.897-21.897v-51.439c0-18.299,14.834-33.133,33.133-33.133l0,0
	c18.299,0,33.133,14.834,33.133,33.133v78.397c0,17.845,14.467,32.312,32.312,32.312c17.846,0,32.312-14.467,32.312-32.312V233.321
	c0-13.331,10.806-24.137,24.137-24.137l0,0c13.331,0,24.137,10.806,24.137,24.137v49.831c0,17.631,14.293,31.923,31.923,31.923l0,0
	c17.631,0,31.924-14.293,31.924-31.923v-69.685c0-12.686,10.284-22.969,22.968-22.969h21.624L443.117,167.487z"/>
<g>
	<circle style="fill:#FFB655;" cx="186.341" cy="126.085" r="22.197"/>
	<circle style="fill:#FFB655;" cx="230.746" cy="126.085" r="22.197"/>
	<circle style="fill:#FFB655;" cx="208.538" cy="87.717" r="22.197"/>
</g>
<path style="fill:#91DC5A;" d="M372.188,73.927L372.188,73.927c0,41.069-33.293,74.362-74.362,74.362h-37.181l0,0
	c0-41.069,33.293-74.362,74.362-74.362H372.188z"/>
<g>
	<path style="fill:#663A00;" d="M147.028,323.543v-83.5c0-17.205-13.947-31.154-31.153-31.154H89.434l9.486-41.402
		c2.574-11.234,12.57-19.199,24.094-19.199H92.976c-11.525,0-21.521,7.965-24.094,19.199l-9.486,41.402h26.441
		c17.205,0,31.154,13.948,31.154,31.154v83.5c0,12.094,9.804,21.897,21.897,21.897l0,0c5.814,0,11.098-2.266,15.019-5.962
		C149.671,335.485,147.028,329.823,147.028,323.543z"/>
	<path style="fill:#663A00;" d="M257.089,350.502v-78.397c0-18.299-14.834-33.133-33.133-33.133l0,0
		c-5.407,0-10.51,1.296-15.019,3.591c10.751,5.477,18.114,16.649,18.114,29.542v78.397c0,17.845,14.467,32.312,32.312,32.312
		c5.422,0,10.531-1.336,15.019-3.696C264.101,373.712,257.089,362.925,257.089,350.502z"/>
	<path style="fill:#663A00;" d="M369.987,283.152v-49.832c0-13.331-10.806-24.137-24.137-24.137l0,0
		c-5.677,0-10.896,1.96-15.019,5.24c5.556,4.422,9.118,11.243,9.118,18.896v49.832c0,17.631,14.293,31.923,31.923,31.923l0,0
		c5.43,0,10.542-1.356,15.019-3.747C376.832,305.955,369.987,295.354,369.987,283.152z"/>
</g>
<g>
	<path style="fill:#FF7956;" d="M184.161,126.088c0-8.66,4.958-16.161,12.189-19.821c-3.009-1.523-6.41-2.381-10.012-2.381
		c-12.261,0-22.201,9.94-22.201,22.201s9.94,22.201,22.201,22.201c3.602,0,7.004-0.858,10.012-2.381
		C189.118,142.248,184.161,134.747,184.161,126.088z"/>
	<path style="fill:#FF7956;" d="M228.564,126.088c0-8.66,4.958-16.161,12.189-19.821c-3.009-1.523-6.41-2.381-10.012-2.381
		c-12.261,0-22.201,9.94-22.201,22.201s9.94,22.201,22.201,22.201c3.602,0,7.004-0.858,10.012-2.381
		C233.522,142.248,228.564,134.747,228.564,126.088z"/>
	<path style="fill:#FF7956;" d="M206.362,87.714c0-8.66,4.958-16.16,12.189-19.821c-3.009-1.523-6.41-2.381-10.012-2.381
		c-12.261,0-22.201,9.94-22.201,22.201c0,12.262,9.94,22.201,22.201,22.201c3.602,0,7.004-0.858,10.012-2.381
		C211.319,103.875,206.362,96.374,206.362,87.714z"/>
</g>
<path style="fill:#64C37D;" d="M365.044,73.927h-30.037c-41.069,0-74.362,33.293-74.362,74.362l0,0h30.037l0,0
	C290.682,107.221,323.975,73.927,365.044,73.927z"/>
<rect x="175.878" y="407.594" width="15.019" height="15.019"/>
<rect x="150.847" y="407.594" width="15.019" height="15.019"/>
<rect x="200.909" y="407.594" width="15.019" height="15.019"/>
<rect x="125.816" y="407.594" width="15.019" height="15.019"/>
<path d="M109.481,240.043v83.5c0,16.214,13.192,29.406,29.407,29.406s29.406-13.192,29.406-29.406v-51.439
	c0-14.13,11.494-25.625,25.624-25.625c14.128,0,25.624,11.494,25.624,25.625v78.397c0,21.958,17.864,39.821,39.822,39.821
	c21.957,0,39.82-17.864,39.82-39.821V233.321c0-9.168,7.459-16.627,16.628-16.627s16.628,7.458,16.628,16.627v49.832
	c0,21.743,17.689,39.433,39.432,39.433s39.433-17.69,39.433-39.433v-69.686c0-8.525,6.936-15.459,15.459-15.459h31.049
	l-7.377-32.196c-3.376-14.737-16.293-25.03-31.414-25.03h-73.918c3.761-2.667,7.303-5.661,10.608-8.965
	c7.519-7.519,13.427-16.27,17.552-26.022c4.265-10.092,6.428-20.816,6.428-31.869v-7.509h-44.685
	c-11.054,0-21.777,2.173-31.869,6.439c-9.752,4.125-18.503,10.032-26.022,17.542c-7.519,7.519-13.417,16.28-17.543,26.022
	c-0.14,0.331-0.278,0.664-0.415,0.996c-3.146-10.286-11.734-18.217-22.392-20.421c0.962-2.921,1.483-6.038,1.483-9.276
	c0-16.382-13.329-29.712-29.711-29.712s-29.711,13.33-29.711,29.712c0,3.238,0.521,6.357,1.483,9.276
	c-13.504,2.792-23.685,14.777-23.685,29.096c0,5.341,1.417,10.357,3.894,14.693H92.976c-15.12,0-28.037,10.293-31.414,25.03
	L49.972,216.4h35.865C98.874,216.399,109.481,227.005,109.481,240.043z M287.728,101.017c12.636-12.626,29.427-19.574,47.28-19.585
	h29.256c-1.672,14.95-8.48,29.066-19.164,39.77c-12.636,12.625-29.427,19.574-47.28,19.574h-11.459l17.624-11.255l-8.084-12.659
	l-26.112,16.677C272.563,121.321,278.789,109.973,287.728,101.017z M245.433,126.087c0,8.102-6.591,14.693-14.692,14.693
	c-8.101,0-14.692-6.591-14.692-14.693c0-8.101,6.591-14.692,14.692-14.692C238.842,111.395,245.433,117.987,245.433,126.087z
	 M208.539,73.021c8.101,0,14.692,6.591,14.692,14.693c0,8.101-6.591,14.692-14.692,14.692c-8.101,0-14.692-6.591-14.692-14.692
	C193.847,79.612,200.438,73.021,208.539,73.021z M171.645,126.087c0-8.101,6.591-14.692,14.692-14.692
	c8.101,0,14.692,6.591,14.692,14.692c0,8.102-6.591,14.693-14.692,14.693C178.236,140.78,171.645,134.189,171.645,126.087z
	 M76.202,169.164c1.803-7.869,8.701-13.366,16.774-13.366h326.047c8.073,0,14.972,5.496,16.775,13.366l3.167,13.824h-12.2
	c-16.806,0-30.478,13.672-30.478,30.478v69.686c0,13.462-10.952,24.414-24.414,24.414c-13.461,0-24.413-10.952-24.413-24.414
	v-49.832c0-17.45-14.197-31.645-31.646-31.645c-17.45,0-31.646,14.197-31.646,31.645v117.181c0,13.676-11.126,24.803-24.802,24.803
	c-13.677,0-24.804-11.127-24.804-24.803v-78.397c0-22.411-18.232-40.643-40.642-40.643c-22.41,0-40.642,18.233-40.642,40.643v51.439
	c0,7.934-6.455,14.388-14.389,14.388c-7.934,0-14.388-6.454-14.388-14.388v-83.5c0-21.319-17.343-38.663-38.662-38.663H68.821
	L76.202,169.164z"/>
<g>
	<rect x="246.175" y="171.311" style="fill:#FFFFFF;" width="15.019" height="15.019"/>
	<rect x="271.206" y="171.311" style="fill:#FFFFFF;" width="15.019" height="15.019"/>
	<rect x="111.428" y="171.311" style="fill:#FFFFFF;" width="124.734" height="15.019"/>
	<rect x="368.646" y="234.329" style="fill:#FFFFFF;" width="15.019" height="54.267"/>
	<rect x="368.646" y="184.267" style="fill:#FFFFFF;" width="15.019" height="15.019"/>
	<rect x="368.646" y="209.298" style="fill:#FFFFFF;" width="15.019" height="15.019"/>
	
		<rect x="407.895" y="351.63" transform="matrix(-0.2233 -0.9747 0.9747 -0.2233 205.1656 881.757)" style="fill:#FFFFFF;" width="91.969" height="15.018"/>
	
		<rect x="426.579" y="265.379" transform="matrix(0.2233 0.9747 -0.9747 0.2233 603.148 -211.1774)" style="fill:#FFFFFF;" width="15.018" height="15.018"/>
	
		<rect x="432.183" y="289.736" transform="matrix(0.2233 0.9748 -0.9748 0.2233 631.2545 -197.7174)" style="fill:#FFFFFF;" width="15.019" height="15.019"/>
</g>
<rect x="1.389" y="349.891" transform="matrix(0.2233 -0.9747 0.9747 0.2233 -301.3235 336.6378)" width="118.381" height="15.018"/>
<rect x="261.003" y="252.832" width="15.019" height="89.11"/>
<rect x="307.188" y="106.25" transform="matrix(-0.5382 -0.8428 0.8428 -0.5382 388.1929 440.2157)" width="15.018" height="15.018"/>
<rect x="328.28" y="92.782" transform="matrix(-0.5382 -0.8428 0.8428 -0.5382 431.9869 437.2759)" width="15.018" height="15.018"/>
<path d="M511.551,432.56l-51.254-223.715l-14.639,3.354l51.254,223.715c0.234,1.022-0.201,1.766-0.482,2.118
	s-0.908,0.943-1.958,0.943H17.528c-1.049,0-1.677-0.591-1.958-0.943c-0.28-0.352-0.716-1.095-0.482-2.118l47.041-205.323
	l-14.639-3.354L0.448,432.56c-1.198,5.229,0.032,10.635,3.376,14.831c3.343,4.196,8.338,6.603,13.704,6.603h476.944
	c5.366,0,10.361-2.406,13.705-6.603C511.519,443.196,512.75,437.79,511.551,432.56z"/>
<g>
</g>
<g>
</g>
<g>
</g>
<g>
</g>
<g>
</g>
<g>
</g>
<g>
</g>
<g>
</g>
<g>
</g>
<g>
</g>
<g>
</g>
<g>
</g>
<g>
</g>
<g>
</g>
<g>
</g>
</svg>
