<svg id="icons" enable-background="new 0 0 64 64" height="512" viewBox="0 0 64 64" width="512" xmlns="http://www.w3.org/2000/svg"><path d="m63 48.995v4c0 2.2-1.8 4-4 4h-54c-2.2 0-4-1.8-4-4v-4c0 2.2 1.8 4 4 4h54c2.2 0 4-1.8 4-4z" fill="#656d78"/><path d="m21 40.995c0 4.42-3.58 8-8 8s-8-3.58-8-8v-3c0 4.42 3.58 8 8 8s8-3.58 8-8z" fill="#f7c292"/><path d="m21 18.995c0 4.42-3.58 8-8 8s-8-3.58-8-8c0-4.41 3.58-8 8-8s8 3.59 8 8z" fill="#ffd2a6"/><path d="m21 18.995v3c0 4.42-3.58 8-8 8s-8-3.58-8-8v-3c0 4.42 3.58 8 8 8s8-3.58 8-8z" fill="#f7c292"/><path d="m40 18.995c0 4.42-3.58 8-8 8s-8-3.58-8-8c0-4.41 3.58-8 8-8s8 3.59 8 8z" fill="#ffd2a6"/><path d="m40 21.995c0 4.42-3.58 8-8 8s-8-3.58-8-8v-3c0 4.42 3.58 8 8 8s8-3.58 8-8z" fill="#f7c292"/><path d="m59 18.995v3c0 4.42-3.58 8-8 8s-8-3.58-8-8v-3c0 4.42 3.58 8 8 8s8-3.58 8-8z" fill="#f7c292"/><path d="m59 18.995c0 4.42-3.58 8-8 8s-8-3.58-8-8c0-4.41 3.58-8 8-8s8 3.59 8 8z" fill="#ffd2a6"/><path d="m59 40.995c0 4.42-3.58 8-8 8s-8-3.58-8-8v-3c0 4.42 3.58 8 8 8s8-3.58 8-8z" fill="#f7c292"/><path d="m43 37.995c0-4.41 3.58-8 8-8s8 3.59 8 8c0 4.42-3.58 8-8 8s-8-3.58-8-8z" fill="#ffd2a6"/><path d="m40 40.995c0 4.42-3.58 8-8 8s-8-3.58-8-8v-3c0 4.42 3.58 8 8 8s8-3.58 8-8z" fill="#f7c292"/><path d="m43 40.995c0 4.42 3.58 8 8 8s8-3.58 8-8v-3c0-4.41-3.58-8-8-8 4.42 0 8-3.58 8-8v-3c0-4.41-3.58-8-8-8s-8 3.59-8 8v3c0 4.42 3.58 8 8 8-4.42 0-8 3.59-8 8zm-38 0c0 4.42 3.58 8 8 8s8-3.58 8-8v-3c0-4.41-3.58-8-8-8 4.42 0 8-3.58 8-8v-3c0-4.41-3.58-8-8-8s-8 3.59-8 8v3c0 4.42 3.58 8 8 8-4.42 0-8 3.59-8 8zm19 0c0 4.42 3.58 8 8 8s8-3.58 8-8v-3c0-4.41-3.58-8-8-8 4.42 0 8-3.58 8-8v-3c0-4.41-3.58-8-8-8s-8 3.59-8 8v3c0 4.42 3.58 8 8 8-4.42 0-8 3.59-8 8zm39-25.99v33.99c0 2.2-1.8 4-4 4h-54c-2.2 0-4-1.8-4-4v-33.99-4c0-2.2 1.8-4 4-4h54c2.2 0 4 1.8 4 4z" fill="#545c66"/><path d="m24 37.995c0-4.41 3.58-8 8-8s8 3.59 8 8c0 4.42-3.58 8-8 8s-8-3.58-8-8z" fill="#ffd2a6"/><path d="m5 37.995c0-4.41 3.58-8 8-8s8 3.59 8 8c0 4.42-3.58 8-8 8s-8-3.58-8-8z" fill="#ffd2a6"/><path d="m59 53.994h-54c-2.757 0-5-2.243-5-5v-37.988c0-2.757 2.243-5 5-5h54c2.757 0 5 2.243 5 5v37.988c0 2.757-2.243 5-5 5zm-54-45.988c-1.654 0-3 1.346-3 3v37.988c0 1.654 1.346 3 3 3h54c1.654 0 3-1.346 3-3v-37.988c0-1.654-1.346-3-3-3z"/><path d="m59 57.994h-54c-2.757 0-5-2.243-5-5v-37.988c0-.553.447-1 1-1s1 .447 1 1v37.988c0 1.654 1.346 3 3 3h54c1.654 0 3-1.346 3-3v-37.988c0-.553.447-1 1-1s1 .447 1 1v37.988c0 2.757-2.243 5-5 5z"/><path d="m13 28c-4.963 0-9-4.037-9-9s4.037-9 9-9 9 4.037 9 9-4.037 9-9 9zm0-16c-3.859 0-7 3.141-7 7s3.141 7 7 7 7-3.141 7-7-3.141-7-7-7z"/><path d="m32 28c-4.963 0-9-4.037-9-9s4.037-9 9-9 9 4.037 9 9-4.037 9-9 9zm0-16c-3.859 0-7 3.141-7 7s3.141 7 7 7 7-3.141 7-7-3.141-7-7-7z"/><path d="m51 28c-4.963 0-9-4.037-9-9s4.037-9 9-9 9 4.037 9 9-4.037 9-9 9zm0-16c-3.859 0-7 3.141-7 7s3.141 7 7 7 7-3.141 7-7-3.141-7-7-7z"/><path d="m13 31c-4.963 0-9-4.037-9-9 0-.553.447-1 1-1s1 .447 1 1c0 3.859 3.141 7 7 7s7-3.141 7-7c0-.553.447-1 1-1s1 .447 1 1c0 4.963-4.037 9-9 9z"/><path d="m32 31c-4.963 0-9-4.037-9-9 0-.553.447-1 1-1s1 .447 1 1c0 3.859 3.141 7 7 7s7-3.141 7-7c0-.553.447-1 1-1s1 .447 1 1c0 4.963-4.037 9-9 9z"/><path d="m51 31c-4.963 0-9-4.037-9-9 0-.553.447-1 1-1s1 .447 1 1c0 3.859 3.141 7 7 7s7-3.141 7-7c0-.553.447-1 1-1s1 .447 1 1c0 4.963-4.037 9-9 9z"/><path d="m43 23c-.553 0-1-.447-1-1v-3c0-.553.447-1 1-1s1 .447 1 1v3c0 .553-.447 1-1 1z"/><path d="m59 23c-.553 0-1-.447-1-1v-3c0-.553.447-1 1-1s1 .447 1 1v3c0 .553-.447 1-1 1z"/><path d="m24 23c-.553 0-1-.447-1-1v-3c0-.553.447-1 1-1s1 .447 1 1v3c0 .553-.447 1-1 1z"/><path d="m40 23c-.553 0-1-.447-1-1v-3c0-.553.447-1 1-1s1 .447 1 1v3c0 .553-.447 1-1 1z"/><path d="m5 23c-.553 0-1-.447-1-1v-3c0-.553.447-1 1-1s1 .447 1 1v3c0 .553-.447 1-1 1z"/><path d="m21 23c-.553 0-1-.447-1-1v-3c0-.553.447-1 1-1s1 .447 1 1v3c0 .553-.447 1-1 1z"/><path d="m17.03 20.002c-.553 0-1.005-.447-1.005-1s.442-1 .994-1h.011c.552 0 1 .447 1 1s-.448 1-1 1z"/><path d="m10.03 22c-.553 0-1.005-.447-1.005-1s.442-1 .994-1h.011c.552 0 1 .447 1 1s-.448 1-1 1z"/><path d="m55.03 21c-.553 0-1.005-.447-1.005-1s.442-1 .994-1h.011c.552 0 1 .447 1 1s-.448 1-1 1z"/><path d="m48.03 18c-.553 0-1.005-.447-1.005-1s.442-1 .994-1h.011c.552 0 1 .447 1 1s-.448 1-1 1z"/><path d="m50.03 24c-.553 0-1.005-.447-1.005-1s.442-1 .994-1h.011c.552 0 1 .447 1 1s-.448 1-1 1z"/><path d="m36.033 20c-.553 0-1.005-.447-1.005-1s.442-1 .994-1h.011c.552 0 1 .447 1 1s-.448 1-1 1z"/><path d="m30.03 24c-.553 0-1.005-.447-1.005-1s.442-1 .994-1h.011c.552 0 1 .447 1 1s-.448 1-1 1z"/><path d="m30.03 16c-.553 0-1.005-.447-1.005-1s.442-1 .994-1h.011c.552 0 1 .447 1 1s-.448 1-1 1z"/><path d="m12.03 16c-.553 0-1.005-.447-1.005-1s.442-1 .994-1h.011c.552 0 1 .447 1 1s-.448 1-1 1z"/><path d="m51 47c-4.963 0-9-4.037-9-9s4.037-9 9-9 9 4.037 9 9-4.037 9-9 9zm0-16c-3.859 0-7 3.141-7 7s3.141 7 7 7 7-3.141 7-7-3.141-7-7-7z"/><path d="m32 47c-4.963 0-9-4.037-9-9s4.037-9 9-9 9 4.037 9 9-4.037 9-9 9zm0-16c-3.859 0-7 3.141-7 7s3.141 7 7 7 7-3.141 7-7-3.141-7-7-7z"/><path d="m13 47c-4.963 0-9-4.037-9-9s4.037-9 9-9 9 4.037 9 9-4.037 9-9 9zm0-16c-3.859 0-7 3.141-7 7s3.141 7 7 7 7-3.141 7-7-3.141-7-7-7z"/><path d="m51 50c-4.963 0-9-4.037-9-9 0-.553.447-1 1-1s1 .447 1 1c0 3.859 3.141 7 7 7s7-3.141 7-7c0-.553.447-1 1-1s1 .447 1 1c0 4.963-4.037 9-9 9z"/><path d="m32 50c-4.963 0-9-4.037-9-9 0-.553.447-1 1-1s1 .447 1 1c0 3.859 3.141 7 7 7s7-3.141 7-7c0-.553.447-1 1-1s1 .447 1 1c0 4.963-4.037 9-9 9z"/><path d="m13 50c-4.963 0-9-4.037-9-9 0-.553.447-1 1-1s1 .447 1 1c0 3.859 3.141 7 7 7s7-3.141 7-7c0-.553.447-1 1-1s1 .447 1 1c0 4.963-4.037 9-9 9z"/><path d="m21 42c-.553 0-1-.447-1-1v-3c0-.553.447-1 1-1s1 .447 1 1v3c0 .553-.447 1-1 1z"/><path d="m5 42c-.553 0-1-.447-1-1v-3c0-.553.447-1 1-1s1 .447 1 1v3c0 .553-.447 1-1 1z"/><path d="m40 42c-.553 0-1-.447-1-1v-3c0-.553.447-1 1-1s1 .447 1 1v3c0 .553-.447 1-1 1z"/><path d="m24 42c-.553 0-1-.447-1-1v-3c0-.553.447-1 1-1s1 .447 1 1v3c0 .553-.447 1-1 1z"/><path d="m59 42c-.553 0-1-.447-1-1v-3c0-.553.447-1 1-1s1 .447 1 1v3c0 .553-.447 1-1 1z"/><path d="m43 42c-.553 0-1-.447-1-1v-3c0-.553.447-1 1-1s1 .447 1 1v3c0 .553-.447 1-1 1z"/><path d="m47.03 39.002c-.553 0-1.005-.447-1.005-1s.442-1 .994-1h.011c.552 0 1 .447 1 1s-.448 1-1 1z"/><path d="m54.03 41c-.553 0-1.005-.447-1.005-1s.442-1 .994-1h.011c.552 0 1 .447 1 1s-.448 1-1 1z"/><path d="m9.03 40c-.553 0-1.005-.447-1.005-1s.442-1 .994-1h.011c.552 0 1 .447 1 1s-.448 1-1 1z"/><path d="m16.03 37c-.553 0-1.005-.447-1.005-1s.442-1 .994-1h.011c.552 0 1 .447 1 1s-.448 1-1 1z"/><path d="m14.03 43c-.553 0-1.005-.447-1.005-1s.442-1 .994-1h.011c.552 0 1 .447 1 1s-.448 1-1 1z"/><path d="m28.027 39c-.553 0-1.005-.447-1.005-1s.442-1 .994-1h.011c.552 0 1 .447 1 1s-.448 1-1 1z"/><path d="m34.03 43c-.553 0-1.005-.447-1.005-1s.442-1 .994-1h.011c.552 0 1 .447 1 1s-.448 1-1 1z"/><path d="m34.03 35c-.553 0-1.005-.447-1.005-1s.442-1 .994-1h.011c.552 0 1 .447 1 1s-.448 1-1 1z"/><path d="m52.03 35c-.553 0-1.005-.447-1.005-1s.442-1 .994-1h.011c.552 0 1 .447 1 1s-.448 1-1 1z"/></svg>