<?xml version="1.0" encoding="iso-8859-1"?>
<!-- Generator: Adobe Illustrator 19.0.0, SVG Export Plug-In . SVG Version: 6.00 Build 0)  -->
<svg version="1.1" id="Capa_1" xmlns="http://www.w3.org/2000/svg" xmlns:xlink="http://www.w3.org/1999/xlink" x="0px" y="0px"
	 viewBox="0 0 512.001 512.001" style="enable-background:new 0 0 512.001 512.001;" xml:space="preserve">
<path style="fill:#CAE8F9;" d="M53.536,177.607l25.801,43.502c24.601,22.201,55.201,27.901,83.103,17.101
	c9.3-3.6,18.603-9.3,27.002-17.101c21.602-19.502,48.302-19.502,69.904,0l29.701-15.001c3.9-27.6,7.5-53.103,11.701-83.705
	c0.899-7.5-3.9-14.701-11.101-16.501l-87.006-23.399l-86.704-23.402c-7.5-1.8-15.001,2.1-18,9
	C82.035,107.704,69.436,138.306,53.536,177.607z"/>
<g>
	<path style="fill:#B7E0F6;" d="M162.439,238.211c9.3-3.6,18.603-9.3,27.002-17.101c21.602-19.502,48.302-19.502,69.904,0
		l29.701-15.001c3.9-27.6,7.5-53.103,11.701-83.705c0.899-7.5-3.9-14.701-11.101-16.501l-87.005-23.4L162.439,238.211z"/>
	<path style="fill:#B7E0F6;" d="M113.239,429.82c0.3,0.298,0.3,0.298,0.599,0.298c7.8,2.401,16.202-2.399,18.302-10.499l19.2-85.905
		c1.8-7.5-2.1-15.001-9-17.4c-0.601-0.601-1.199-0.601-1.8-0.901c-7.8-2.1-16.2,2.401-18.301,10.499l-19.201,85.905
		C100.937,419.618,105.437,427.719,113.239,429.82z"/>
</g>
<path style="fill:#CAE8F9;" d="M1.141,454.72c1.5,5.101,5.4,8.701,10.499,10.201l86.598,23.4l87.003,23.102
	c4.801,1.5,10.201,0,14.102-3.6c6.599-6,4.799-12.002,2.999-20.701c-8.699-42.003-39.602-74.703-80.704-85.804
	c-0.3,0-0.599-0.3-0.899-0.3c-41.102-10.5-83.599,2.4-111.798,34.202C2.941,441.819-1.561,446.02,1.141,454.72z"/>
<path style="fill:#FE318F;" d="M132.739,343.216c0.901,0.3,1.5,0.3,2.401,0.3c65.102,16.501,138.005-22.501,149.707-105.906
	c1.5-11.1,2.701-21.6,4.2-31.501c-3.3-2.1-6.601-4.2-9.6-7.2c-31.501-28.802-73.503-30.001-105.904-3.6
	c-1.501,1.199-2.701,2.399-4.2,3.6c-21.602,19.8-48.302,19.8-69.904,0c-13.201-12.302-29.4-19.201-45.901-21.302
	c-0.601,1.199-0.901,2.1-1.501,3.3c-3.3,8.401-5.7,17.101-7.2,25.502C34.635,266.412,71.536,326.715,132.739,343.216z"/>
<path style="fill:#A4D9F5;" d="M113.239,429.82c0.3,0.298,0.3,0.298,0.599,0.298c7.8,2.401,16.202-2.399,18.302-10.499l19.2-85.905
	c1.8-7.5-2.1-15.001-9-17.4L113.239,429.82z"/>
<path style="fill:#FD0F7F;" d="M135.139,343.516c65.102,16.501,138.005-22.501,149.707-105.906c1.5-11.1,2.701-21.6,4.2-31.501
	c-3.3-2.1-6.601-4.2-9.6-7.2c-31.501-28.802-73.503-30.001-105.904-3.6L135.139,343.516z"/>
<path style="fill:#B7E0F6;" d="M98.238,488.321l87.003,23.102c4.801,1.5,10.201,0,14.102-3.6c6.599-6,4.799-12.002,2.999-20.701
	c-8.699-42.003-39.602-74.703-80.704-85.804c-0.3,0-0.599-0.3-0.899-0.3L98.238,488.321z"/>
<g>
	<path style="fill:#1DE8F1;" d="M270.652,15.001v30.001c0,8.399-6.599,15.001-15.001,15.001s-15.001-6.601-15.001-15.001V15.001
		C240.65,6.6,247.25,0,255.651,0S270.652,6.6,270.652,15.001z"/>
	<path style="fill:#1DE8F1;" d="M185.043,55.608l-30.001-30.001c-5.859-5.859-5.859-15.353,0-21.212
		c5.859-5.859,15.353-5.859,21.212,0l30.001,30.001c5.859,5.859,5.859,15.353,0,21.212
		C200.395,61.468,190.902,61.468,185.043,55.608z"/>
	<path style="fill:#1DE8F1;" d="M305.048,55.608c-5.859-5.859-5.859-15.353,0-21.212L335.05,4.394
		c5.859-5.859,15.353-5.859,21.212,0c5.859,5.859,5.859,15.353,0,21.212L326.26,55.608C320.4,61.468,310.908,61.468,305.048,55.608z
		"/>
</g>
<path style="fill:#CAE8F9;" d="M222.448,237.957l43.656,25.539c32.279,7.49,61.807-2.359,80.974-25.332
	c6.389-7.657,11.762-17.153,15.326-28.047c9.438-27.529,32.792-40.474,61.139-33.89l18.705-27.519
	c-9.969-26.031-19.185-50.081-30.347-78.883c-2.85-6.996-10.538-10.966-17.708-9.05L306.75,82.49l-87.179,21.567
	c-7.432,2.062-12.102,9.109-11.38,16.598C213.483,163.001,217.299,195.874,222.448,237.957z"/>
<g>
	<path style="fill:#B7E0F6;" d="M347.077,238.164c6.389-7.657,11.762-17.153,15.326-28.047c9.438-27.529,32.792-40.474,61.139-33.89
		l18.705-27.519c-9.969-26.031-19.185-50.081-30.347-78.883c-2.85-6.996-10.538-10.966-17.708-9.05L306.75,82.49L347.077,238.164z"
		/>
	<path style="fill:#B7E0F6;" d="M395.969,429.853c0.407,0.115,0.407,0.115,0.668-0.029c7.986-1.682,13.008-9.952,10.917-18.057
		l-24.37-84.567c-2.062-7.432-9.109-12.102-16.307-10.854c-0.816-0.234-1.34,0.056-2.011,0.085
		c-7.84,1.945-13.005,9.953-10.915,18.056l24.368,84.568C380.265,426.894,388.128,431.798,395.969,429.853z"/>
</g>
<path style="fill:#CAE8F9;" d="M309.641,506.174c3.785,3.735,8.941,4.992,14.129,3.832l87.441-21.715l88.975-21.975
	c4.926-1.016,8.922-4.945,10.589-9.985c2.863-8.447-1.621-12.824-7.412-19.56c-27.972-32.518-72.534-46.137-113.864-35.92
	c-0.263,0.146-0.669,0.028-0.932,0.173c-41.039,10.743-72.309,42.826-81.555,84.312
	C304.962,494.018,303.062,499.875,309.641,506.174z"/>
<path style="fill:#FE318F;" d="M372.007,344.403c0.934-0.174,1.457-0.464,2.245-0.901c64.939-17.131,109.794-86.586,79.593-165.206
	c-4.07-10.435-8.109-20.201-11.599-29.588c-3.904-0.237-7.81-0.474-11.888-1.643c-41.515-9.918-78.833,9.395-94.371,48.194
	c-0.732,1.777-1.199,3.407-1.929,5.185c-9.294,27.79-32.646,40.735-61.139,33.89c-17.51-4.359-35.024-2.54-50.473,3.622
	c0.056,1.34,0.23,2.274,0.286,3.614c1.187,8.947,3.305,17.721,6.066,25.795C248.969,324.79,310.479,359.642,372.007,344.403z"/>
<path style="fill:#A4D9F5;" d="M395.969,429.853c0.407,0.115,0.407,0.115,0.668-0.029c7.986-1.682,13.008-9.952,10.917-18.057
	l-24.37-84.567c-2.062-7.432-9.109-12.102-16.307-10.854L395.969,429.853z"/>
<path style="fill:#FD0F7F;" d="M374.252,343.502c64.939-17.131,109.794-86.586,79.593-165.206
	c-4.07-10.435-8.109-20.201-11.599-29.588c-3.904-0.237-7.81-0.474-11.888-1.643c-41.515-9.918-78.833,9.395-94.371,48.194
	L374.252,343.502z"/>
<path style="fill:#B7E0F6;" d="M411.211,488.291l88.975-21.975c4.926-1.016,8.922-4.945,10.589-9.985
	c2.863-8.447-1.621-12.824-7.412-19.56c-27.972-32.518-72.534-46.137-113.864-35.92c-0.263,0.146-0.669,0.028-0.932,0.173
	L411.211,488.291z"/>
<g>
</g>
<g>
</g>
<g>
</g>
<g>
</g>
<g>
</g>
<g>
</g>
<g>
</g>
<g>
</g>
<g>
</g>
<g>
</g>
<g>
</g>
<g>
</g>
<g>
</g>
<g>
</g>
<g>
</g>
</svg>
