<svg height="466pt" viewBox="0 -29 466.00039 466" width="466pt" xmlns="http://www.w3.org/2000/svg"><path d="m418.5 9.699219c20.710938 0 37.5 16.792969 37.5 37.5 0 20.710937-16.789062 37.5-37.5 37.5h-78.53125v-24.636719c0-14.898438-12.074219-26.972656-26.96875-26.972656s-26.96875 12.074218-26.96875 26.972656v24.636719h-111.5v-21.898438c0-11.890625-9.640625-21.53125-21.53125-21.53125s-21.53125 9.640625-21.53125 21.53125v21.898438h-83.96875c-20.710938 0-37.5-16.789063-37.5-37.5 0-20.707031 16.789062-37.5 37.5-37.5zm0 0" fill="#00acea"/><path d="m312 290.429688h32.980469c17.019531.003906 30.820312 13.800781 30.820312 30.820312v77.050781h-125.601562v-77.050781c.003906-17.019531 13.800781-30.816406 30.820312-30.820312zm0 0" fill="#00acea"/><path d="m339.96875 148.660156v27.742188h-53.9375v-27.742188zm0 0" fill="#00efd1"/><path d="m339.96875 84.699219v63.960937h-53.9375v-88.597656c0-14.898438 12.074219-26.972656 26.96875-26.972656s26.96875 12.074218 26.96875 26.972656zm0 0" fill="#fedb41"/><path d="m137 225.03125h44.710938v136.378906c0 15.855469-12.855469 28.710938-28.710938 28.710938s-28.710938-12.855469-28.710938-28.710938v-136.378906zm0 0" fill="#d4e1f4"/><path d="m174.53125 134.582031v57.429688h-43.0625v-57.429688zm0 0" fill="#00efd1"/><path d="m131.46875 84.699219v-21.898438c0-11.890625 9.640625-21.53125 21.53125-21.53125s21.53125 9.640625 21.53125 21.53125v71.78125h-43.0625zm0 0" fill="#fedb41"/><path d="m166 193v32.03125h-29v-33.019531h29zm0 0" fill="#00acea"/><g fill="#083863"><path d="m47.5 95h73.5v97.011719c0 3.914062 2.722656 7.292969 6 8.933593v14.054688h-2.710938c-5.585937-.007812-10.152343 4.445312-10.289062 10.03125v136.378906c0 21.351563 17.65625 38.722656 39 38.722656s39-17.371093 39-38.722656v-136.378906c-.132812-5.585938-4.703125-10.039062-10.289062-10.03125h-5.710938v-13.109375c4.824219-.710937 9-4.859375 9-9.878906v-97.011719h91v81.402344c0 5.523437 4.507812 9.597656 10.03125 9.597656h15.96875v94h-20.980469c-22.507812 0-41.019531 18.742188-41.019531 41.25v77.050781c.058594 2.640625 1.167969 5.152344 3.082031 6.972657 1.914063 1.820312 4.476563 2.800781 7.117188 2.726562h125.601562c2.640625.074219 5.203125-.90625 7.117188-2.726562 1.914062-1.820313 3.023437-4.332032 3.082031-6.972657v-77.050781c0-22.507812-18.511719-41.25-41.019531-41.25h-22.980469v-94h17.96875c5.523438 0 10.03125-4.074219 10.03125-9.597656v-81.402344h68.5c26.234375 0 47.5-21.265625 47.5-47.5s-21.265625-47.5-47.5-47.5h-371c-12.605469-.0703125-24.71875 4.902344-33.640625 13.808594-8.917969 8.90625-13.9101562 21.011718-13.859375 33.617187.0234375 26.234375 21.265625 47.507813 47.5 47.574219zm318.5 226.25v66.75h-106v-66.75c0-11.480469 9.539062-21.25 21.019531-21.25h63.960938c11.480469 0 21.019531 9.769531 21.019531 21.25zm-225-139.25v-37h24v37zm24-57h-24v-62.199219c.117188-6.410156 5.355469-11.539062 11.765625-11.53125 3.167969-.011719 6.21875 1.203125 8.511719 3.390625 2.261718 2.117188 3.601562 5.042969 3.722656 8.140625zm7 236.410156c0 10.496094-8.507812 19-19 19s-19-8.503906-19-19v-126.410156h38zm-25-146.410156v-13h9v13zm183-76h-34v-78.9375c0-9.390625 7.613281-17 17-17 9.390625 0 17 7.609375 17 17zm-34 27v-7h34v7zm-267.953125-138.09375c5.164063-5.132812 12.171875-7.980469 19.453125-7.90625h371c15.1875 0 27.5 12.3125 27.5 27.5s-12.3125 27.5-27.5 27.5h-68.5v-14.9375c0-20.4375-16.566406-37-37-37s-37 16.5625-37 37v14.9375h-91v-12.199219c-.058594-8.390625-3.464844-16.410156-9.464844-22.28125-6.035156-5.953125-14.175781-9.277343-22.652344-9.25-17.382812 0-31.882812 14.144531-31.882812 31.53125v12.199219h-73.5c-11.136719-.042969-21.15625-6.773438-25.40625-17.070312-4.253906-10.292969-1.90625-22.132813 5.953125-30.023438zm0 0"/><path d="m48 59h12c5.523438 0 10-4.476562 10-10s-4.476562-10-10-10h-12c-5.523438 0-10 4.476562-10 10s4.476562 10 10 10zm0 0"/><path d="m405 59h12c5.523438 0 10-4.476562 10-10s-4.476562-10-10-10h-12c-5.523438 0-10 4.476562-10 10s4.476562 10 10 10zm0 0"/><path d="m313 377.480469c5.523438 0 10-4.476563 10-10v-46.230469c0-5.523438-4.476562-10-10-10s-10 4.476562-10 10v46.230469c0 5.523437 4.476562 10 10 10zm0 0"/><path d="m342 377.480469c5.523438 0 10-4.476563 10-10v-46.230469c0-5.523438-4.476562-10-10-10s-10 4.476562-10 10v46.230469c0 5.523437 4.476562 10 10 10zm0 0"/><path d="m274 321.25v46.230469c0 5.523437 4.476562 10 10 10s10-4.476563 10-10v-46.230469c0-5.523438-4.476562-10-10-10s-10 4.476562-10 10zm0 0"/><path d="m153 368.539062c5.523438 0 10-4.476562 10-10v-111.976562c0-5.523438-4.476562-10-10-10s-10 4.476562-10 10v111.976562c0 5.523438 4.476562 10 10 10zm0 0"/></g></svg>