<svg id="Capa_1" enable-background="new 0 0 512 512" height="512" viewBox="0 0 512 512" width="512" xmlns="http://www.w3.org/2000/svg"><g><g><path d="m433.5 138.245-17.28 317-161.2 14.37-154.125-14.37-15.661-317 168.872-10.245z" fill="#f9f8f9"/><path d="m110.08 455.245-8.357 6.202-5.943-6.202-17.28-317 8.798-10.245 8.072 10.245z" fill="#e8e8e8"/><g><g><path d="m239.107 459.405h-34.79l2.995-236.596c0-5.523 4.477-10 10-10l3-1.882h8.795c5.523 0 10 4.477 10 10z" fill="#e8e8e8"/><path d="m220.312 210.927v244.318l-8 5.351-8-5.351v-234.32c0-5.52 4.48-10 10-10z" fill="#dcdbdd"/></g><g><path d="m308.69 459.405h-34.79l2.995-236.596c0-5.523 4.477-10 10-10l3-1.882h8.795c5.523 0 10 4.477 10 10z" fill="#e8e8e8"/><path d="m289.895 210.927v244.318l-8 5.351-8-5.351v-234.32c0-5.52 4.48-10 10-10z" fill="#dcdbdd"/></g><g><path d="m378.272 459.405h-34.79l2.995-236.596c0-5.523 4.477-10 10-10l3-1.882h8.795c5.523 0 10 4.477 10 10z" fill="#e8e8e8"/><path d="m359.478 210.927v244.318l-8 5.351-8-5.351v-234.32c0-5.52 4.48-10 10-10z" fill="#dcdbdd"/></g><g><path d="m169.525 459.405h-34.79l2.995-236.596c0-5.523 4.477-10 10-10l3-1.882h8.795c5.523 0 10 4.477 10 10z" fill="#e8e8e8"/><path d="m150.73 210.927v244.318l-8 5.351-8-5.351v-234.32c0-5.52 4.48-10 10-10z" fill="#dcdbdd"/></g></g><path d="m416.22 455.245-1.95 35.82c-.003.06-.007.12-.011.18 0 0-9.785 11.181-17.685 11.181l-280.34-1.319c-7.96 0-14.54-6.23-14.97-14.18l-5.484-31.682z" fill="#e8e8e8"/><path d="m414.259 491.245c-.52 7.86-7.059 14-14.959 14h-286.6c-7.96 0-14.54-6.23-14.97-14.18l-1.95-35.82h14.3l.857 17.006c.536 10.641 9.32 18.994 19.975 18.994z" fill="#dcdbdd"/><path d="m83.34 93.245c0-15.143 3.235-27.45 14.702-35.606 4.045-2.877 12.875-7.611 12.875-7.611 3.993-1.16 8.215-1.783 12.582-1.783h265c18.836 0 34.97 11.573 41.677 27.997 0 0 .908 10.986.908 17.003z" fill="#e8e8e8"/><path d="m433.5 93.245-175.394 15.096-179.606-15.096c0-12.42 5.04-23.68 13.18-31.82 5.28-5.28 11.868-9.257 19.238-11.397-2.864 3.988-5.089 8.474-6.532 13.291-1.928 6.438 2.85 12.927 9.57 12.927l316.221-.003c2.15 5.249 3.323 10.992 3.323 17.002z" fill="#dcdbdd"/><path d="m435.043 137.128-358.34-.957c-8.284 0-15-6.716-15-15l.064-11.745c0-8.284 5.45-16.181 13.734-16.181h361c8.284 0 15 6.716 15 15v15c0 .336-.011.67-.033 1-.001 0-8.477 12.883-16.425 12.883z" fill="#e8e8e8"/><path d="m451.467 124.245c-.51 7.82-7.027 14-14.967 14h-361c-8.28 0-15-6.72-15-15v-15c0-8.28 6.72-15 15-15v12c0 10.49 8.51 19 19 19z" fill="#dcdbdd"/></g><path d="m440.502 85.364c-3.494-25.584-25.475-45.364-52.002-45.364h-80v-17.5c0-12.407-10.094-22.5-22.5-22.5h-60c-12.406 0-22.5 10.093-22.5 22.5v17.5h-80c-26.527 0-48.508 19.78-52.002 45.364-10.503 1.894-18.498 11.096-18.498 22.136v15c0 10.998 7.933 20.171 18.376 22.115l2.496 45.794c.218 3.997 3.527 7.092 7.482 7.092.138 0 .276-.003.415-.011 4.136-.225 7.306-3.761 7.081-7.897l-2.43-44.593h339.16l-16.457 302h-23.357v-139c0-4.142-3.357-7.5-7.5-7.5s-7.5 3.358-7.5 7.5v139h-19.79v-226.818c0-1.378 1.121-2.5 2.5-2.5h14.79c1.379 0 2.5 1.122 2.5 2.5v52.818c0 4.142 3.357 7.5 7.5 7.5s7.5-3.358 7.5-7.5v-52.818c0-9.649-7.851-17.5-17.5-17.5h-14.79c-9.649 0-17.5 7.851-17.5 17.5v226.818h-19.79v-226.818c0-9.649-7.851-17.5-17.5-17.5h-14.79c-9.649 0-17.5 7.851-17.5 17.5v226.818h-19.791v-226.818c0-9.649-7.851-17.5-17.5-17.5h-14.79c-9.649 0-17.5 7.851-17.5 17.5v226.818h-19.79v-226.818c0-9.649-7.851-17.5-17.5-17.5h-14.79c-9.649 0-17.5 7.851-17.5 17.5v226.818h-24.357l-12.12-222.408c-.226-4.136-3.771-7.301-7.897-7.081-4.136.225-7.306 3.761-7.081 7.897l14.458 265.316c.65 11.93 10.52 21.275 22.468 21.275h100.294c4.143 0 7.5-3.358 7.5-7.5s-3.357-7.5-7.5-7.5h-100.295c-3.983 0-7.272-3.115-7.489-7.092l-1.521-27.907h304.61l-1.521 27.908c-.217 3.977-3.506 7.092-7.489 7.092h-151.295c-4.143 0-7.5 3.358-7.5 7.5s3.357 7.5 7.5 7.5h151.295c11.948 0 21.817-9.345 22.468-21.275l18.861-346.11c10.442-1.944 18.376-11.117 18.376-22.115v-15c0-11.04-7.995-20.242-18.498-22.136zm-159.106 134.818c0-1.378 1.121-2.5 2.5-2.5h14.79c1.379 0 2.5 1.122 2.5 2.5v226.818h-19.79zm-69.582 0c0-1.378 1.121-2.5 2.5-2.5h14.79c1.379 0 2.5 1.122 2.5 2.5v226.818h-19.79zm-69.58 0c0-1.378 1.121-2.5 2.5-2.5h14.79c1.379 0 2.5 1.122 2.5 2.5v226.818h-19.79zm76.266-197.682c0-4.136 3.364-7.5 7.5-7.5h60c4.136 0 7.5 3.364 7.5 7.5v17.5h-75zm225.5 100c0 4.136-3.364 7.5-7.5 7.5h-361c-4.136 0-7.5-3.364-7.5-7.5v-15c0-4.136 3.364-7.5 7.5-7.5h249.755c4.143 0 7.5-3.358 7.5-7.5s-3.357-7.5-7.5-7.5h-238.5c3.484-17.096 18.635-30 36.745-30h265c18.11 0 33.261 12.904 36.745 30h-64.245c-4.143 0-7.5 3.358-7.5 7.5s3.357 7.5 7.5 7.5h75.5c4.136 0 7.5 3.364 7.5 7.5z"/></g></svg>