<svg id="Capa_1" enable-background="new 0 0 512 512" height="512" viewBox="0 0 512 512" width="512" xmlns="http://www.w3.org/2000/svg"><g><g><path d="m183.5 76h-126c-27.614 0-50 22.386-50 50v2.5l5.415 7.5-5.415 7.5v45l7.968 8.447-7.968 6.553v2.5c0 27.614 22.386 50 50 50l62 10.245 64.104-10.245z" fill="#5766cc"/><path d="m444.5 196c33.137 0 60-26.863 60-60 0-33.137-26.863-60-60-60h-255l-19.989.5c-27.614 0-42.979 20.003-42.979 47.617l-.532 77.149c0 27.614 22.386 50 50 50l296.404 2.128c13.061 0 26.268-5.74 30.387-17.39 1.106-3.129 1.708-6.496 1.708-10.004 0-16.569-13.431-30-30-30z" fill="#8a94db"/><path d="m169.5 236c-16.54 0-30-13.46-30-30v-80c0-27.61 22.39-50 50-50h-20c-27.61 0-50 22.39-50 50v80c0 27.61 22.39 50 50 50h20l132.266 13.989 122.734-13.989h30c13.06 0 24.17-8.34 28.28-20z" fill="#717ed4"/><path d="m183.5 256h-126c-27.614 0-50 22.386-50 50v2.5l5.5 7.5-5.5 7.5v45l7.543 5.66-7.543 9.34v2.5c0 27.614 22.386 50 50 50h126.104z" fill="#88bdf5"/><path d="m444.5 376c7.829 0 8.877-4.323 15.734-7.05 6.466-2.572 18.811-3.413 23.944-7.941 12.462-10.995 20.322-27.084 20.322-45.009 0-33.137-26.863-60-60-60h-260.896l-14.264.798c-27.614 0-47.489 22.003-47.489 49.617l4.319 74.085c0 27.614 22.386 50 50 50l294.022 2.043c13.061 0 28.481-4.889 32.6-16.538 1.106-3.129 1.708-6.496 1.708-10.004 0-16.569-13.431-30-30-30h-30z" fill="#a8d8f8"/><path d="m169.5 416c-16.54 0-30-13.46-30-30v-80c0-27.61 22.39-50 50-50h-20c-27.61 0-50 22.39-50 50v80c0 27.61 22.39 50 50 50h20 285c13.06 0 24.17-8.34 28.28-20z" fill="#94cdf6"/></g><path d="m512 226c0-17.048-11.438-31.465-27.041-36.005 16.408-12.325 27.041-31.941 27.041-53.995 0-37.22-30.28-67.5-67.5-67.5h-275-112c-31.706 0-57.5 25.794-57.5 57.5v80c0 21.405 11.765 40.102 29.159 50-17.394 9.898-29.159 28.595-29.159 50v80c0 31.706 25.794 57.5 57.5 57.5h112 66.5c4.143 0 7.5-3.358 7.5-7.5s-3.357-7.5-7.5-7.5h-66.5c-23.435 0-42.5-19.065-42.5-42.5v-80c0-23.435 19.065-42.5 42.5-42.5h165.5c4.143 0 7.5-3.358 7.5-7.5s-3.357-7.5-7.5-7.5h-165.5c-23.435 0-42.5-19.065-42.5-42.5v-80c0-23.435 19.065-42.5 42.5-42.5h275c28.948 0 52.5 23.551 52.5 52.5s-23.552 52.5-52.5 52.5h-241c-6.893 0-12.5-5.607-12.5-12.5v-20c0-6.893 5.607-12.5 12.5-12.5h237c4.143 0 7.5-3.358 7.5-7.5s-3.357-7.5-7.5-7.5h-237c-15.163 0-27.5 12.336-27.5 27.5v20c0 15.164 12.337 27.5 27.5 27.5h271c12.406 0 22.5 10.093 22.5 22.5s-10.094 22.5-22.5 22.5h-104.5c-4.143 0-7.5 3.358-7.5 7.5s3.357 7.5 7.5 7.5h74.5c28.948 0 52.5 23.551 52.5 52.5s-23.552 52.5-52.5 52.5h-241c-6.893 0-12.5-5.607-12.5-12.5v-20c0-6.893 5.607-12.5 12.5-12.5h237c4.143 0 7.5-3.358 7.5-7.5s-3.357-7.5-7.5-7.5h-237c-15.163 0-27.5 12.336-27.5 27.5v20c0 15.164 12.337 27.5 27.5 27.5h271c12.406 0 22.5 10.093 22.5 22.5s-10.094 22.5-22.5 22.5h-203.5c-4.143 0-7.5 3.358-7.5 7.5s3.357 7.5 7.5 7.5h203.5c20.678 0 37.5-16.822 37.5-37.5 0-17.048-11.438-31.465-27.041-36.005 16.408-12.325 27.041-31.941 27.041-53.995s-10.633-41.67-27.041-53.995c15.603-4.54 27.041-18.957 27.041-36.005zm-400 142.5h-97v-45h97zm18.811 60h-73.311c-23.435 0-42.5-19.065-42.5-42.5v-2.5h97v2.5c0 16.82 7.261 31.976 18.811 42.5zm-18.811-122.5v2.5h-97v-2.5c0-23.435 19.065-42.5 42.5-42.5h73.311c-11.55 10.524-18.811 25.68-18.811 42.5zm18.811-57.5h-73.311c-23.435 0-42.5-19.065-42.5-42.5v-2.5h97v2.5c0 16.82 7.261 31.976 18.811 42.5zm-18.811-122.5v2.5h-37c-4.143 0-7.5 3.358-7.5 7.5s3.357 7.5 7.5 7.5h37v45h-97v-45h25c4.143 0 7.5-3.358 7.5-7.5s-3.357-7.5-7.5-7.5h-25v-2.5c0-23.435 19.065-42.5 42.5-42.5h73.311c-11.55 10.524-18.811 25.68-18.811 42.5z"/></g></svg>