<svg id="Layer_1" height="512" viewBox="0 0 512 512" width="512" xmlns="http://www.w3.org/2000/svg" data-name="Layer 1"><path d="m443.95 191.34v249.16a40 40 0 0 1 -40 40h-295.9a40 40 0 0 1 -40-40v-278.07h375.9z" fill="#fb6771"/><path d="m108.05 440.5v-278.07h-40v278.07a40 40 0 0 0 40 40h40a40 40 0 0 1 -40-40z" fill="#e75163"/><path d="m443.95 143.63h-375.9a72.29 72.29 0 0 1 72.29-72.29h231.32a72.29 72.29 0 0 1 72.29 72.29z" fill="#b0b5ca"/><path d="m180.34 71.34h-40a72.29 72.29 0 0 0 -72.29 72.29h40a72.29 72.29 0 0 1 72.29-72.29z" fill="#ccd3df"/><path d="m484.43 162.43a14.455 14.455 0 1 1 0 28.91h-40.48v-28.91z" fill="#4a5160"/><path d="m316 311.46v120a10 10 0 0 1 -10 10h-100a10 10 0 0 1 -10-10v-120a10 10 0 0 1 10-10h100a10 10 0 0 1 10 10z" fill="#e2e4ed"/><path d="m299.37 70.42v.92h-86.74v-29.84a10 10 0 0 1 10-10h66.74a10 10 0 0 1 10 10z" fill="#4a5160"/><path d="m245.92 326.23a10.075 10.075 0 1 1 0 20.15h-20a10.075 10.075 0 0 1 0-20.15z" fill="#e8a467"/><path d="m245.92 363.3a10.075 10.075 0 1 1 0 20.15h-20a10.075 10.075 0 0 1 0-20.15z" fill="#e75163"/><path d="m245.92 400.36a10.08 10.08 0 1 1 0 20.16h-20a10.08 10.08 0 0 1 0-20.16z" fill="#d8ff33"/><path d="m68.05 162.43v28.91h-40.48a14.455 14.455 0 1 1 0-28.91z" fill="#4a5160"/><g fill="#284268"><path d="m68.05 148.63h375.9a5 5 0 0 0 5-5 77.377 77.377 0 0 0 -77.29-77.29h-67.29v-24.84a15.017 15.017 0 0 0 -15-15h-66.74a15.017 15.017 0 0 0 -15 15v24.84h-67.29a77.377 77.377 0 0 0 -77.29 77.29 5 5 0 0 0 5 5zm149.58-107.13a5.006 5.006 0 0 1 5-5h66.74a5.006 5.006 0 0 1 5 5v24.84h-76.74zm-77.29 34.84h231.32a67.383 67.383 0 0 1 67.106 62.29h-365.532a67.383 67.383 0 0 1 67.106-62.29z"/><path d="m484.43 157.43h-456.86a19.455 19.455 0 1 0 0 38.91h35.48v244.16a45.051 45.051 0 0 0 45 45h295.9a45.051 45.051 0 0 0 45-45v-244.16h35.48a19.455 19.455 0 1 0 0-38.91zm-456.86 28.91a9.455 9.455 0 1 1 0-18.91h35.48v18.91zm411.38 254.16a35.04 35.04 0 0 1 -35 35h-295.9a35.04 35.04 0 0 1 -35-35v-273.07h365.9zm52.182-256.933a9.438 9.438 0 0 1 -6.7 2.773h-35.482v-18.91h35.48a9.46 9.46 0 0 1 6.7 16.137z"/><path d="m306 296.46h-100a15.016 15.016 0 0 0 -15 15v120a15.017 15.017 0 0 0 15 15h100a15.017 15.017 0 0 0 15-15v-120a15.016 15.016 0 0 0 -15-15zm5 135a5.006 5.006 0 0 1 -5 5h-100a5.006 5.006 0 0 1 -5-5v-120a5.006 5.006 0 0 1 5-5h100a5.006 5.006 0 0 1 5 5z"/><circle cx="286" cy="373.37" r="10"/><circle cx="286" cy="410.44" r="10"/><circle cx="286" cy="336.31" r="10"/><path d="m245.92 395.36h-20a15.089 15.089 0 0 0 -15.07 15.08 15.092 15.092 0 0 0 15.07 15.08h20a15.08 15.08 0 1 0 0-30.16zm3.605 18.664a5.087 5.087 0 0 1 -3.605 1.5h-20a5.076 5.076 0 0 1 -3.575-8.674 5.009 5.009 0 0 1 3.575-1.486h20a5.083 5.083 0 0 1 3.605 8.664z"/><path d="m245.92 358.3h-20a15.075 15.075 0 0 0 0 30.15h20a15.075 15.075 0 1 0 0-30.15zm3.6 18.655a5.082 5.082 0 0 1 -3.6 1.5h-20a5.075 5.075 0 0 1 0-10.15h20a5.076 5.076 0 0 1 3.6 8.655z"/><path d="m245.92 321.23h-20a15.075 15.075 0 0 0 0 30.15h20a15.075 15.075 0 1 0 0-30.15zm3.6 18.655a5.082 5.082 0 0 1 -3.6 1.5h-20a5.075 5.075 0 0 1 0-10.15h20a5.086 5.086 0 0 1 5.08 5.08 5.025 5.025 0 0 1 -1.476 3.57z"/></g></svg>