<?xml version="1.0" encoding="iso-8859-1"?>
<!-- Generator: Adobe Illustrator 19.0.0, SVG Export Plug-In . SVG Version: 6.00 Build 0)  -->
<svg version="1.1" id="Layer_1" xmlns="http://www.w3.org/2000/svg" xmlns:xlink="http://www.w3.org/1999/xlink" x="0px" y="0px"
	 viewBox="0 0 511.981 511.981" style="enable-background:new 0 0 511.981 511.981;" xml:space="preserve">
<polygon style="fill:#FFCE54;" points="418.985,108.696 374.986,72.353 346.987,63.354 306.333,68.354 271.99,78.025 
	231.992,115.008 170.666,104.337 111.332,135.663 79.334,179.662 77.998,190.021 433.64,190.021 436.983,169.694 "/>
<g>
	<path style="fill:#656D78;" d="M444.983,239.159l2.5,54.99h13.5l27.998-19.999l12-27.991
		C500.981,246.159,448.483,239.659,444.983,239.159z"/>
	<path style="fill:#656D78;" d="M11.5,243.159l19.335,34.334l32.999,16.343l2.336-53.349C66.17,240.488,17.172,243.159,11.5,243.159
		z"/>
</g>
<path style="fill:#FC6E51;" d="M51.663,194.661l11,67.31l36.334,84.332l50.326,58.998c0,0,179.665,0,181.665,0
	s42.342-6.344,42.342-6.344l37.999-59.966l32.998-58.997l10.656-83.005L51.663,194.661z"/>
<rect x="150.991" y="409.301" style="fill:#E9573F;" width="208.65" height="35.34"/>
<path d="M106.661,245.331c-5.891,0-10.664,4.765-10.664,10.656c0,5.906,4.773,10.672,10.664,10.672
	c5.89,0,10.671-4.766,10.671-10.672C117.332,250.096,112.551,245.331,106.661,245.331z"/>
<path d="M149.331,245.331c-5.89,0-10.671,4.765-10.671,10.656c0,5.906,4.781,10.672,10.671,10.672
	c5.891,0,10.664-4.766,10.664-10.672C159.994,250.096,155.221,245.331,149.331,245.331z"/>
<path d="M149.331,330.648c-5.89,0-10.671,4.78-10.671,10.687c0,5.875,4.781,10.656,10.671,10.656
	c5.891,0,10.664-4.781,10.664-10.656C159.994,335.429,155.221,330.648,149.331,330.648z"/>
<path d="M127.996,287.993c-5.891,0-10.664,4.781-10.664,10.656c0,5.906,4.773,10.688,10.664,10.688
	c5.89,0,10.664-4.781,10.664-10.688C138.659,292.774,133.886,287.993,127.996,287.993z"/>
<path d="M170.658,287.993c-5.891,0-10.664,4.781-10.664,10.656c0,5.906,4.773,10.688,10.664,10.688
	c5.89,0,10.671-4.781,10.671-10.688C181.33,292.774,176.549,287.993,170.658,287.993z"/>
<path d="M362.659,245.331c-5.891,0-10.672,4.765-10.672,10.656c0,5.906,4.781,10.672,10.672,10.672s10.671-4.766,10.671-10.672
	C373.33,250.096,368.55,245.331,362.659,245.331z"/>
<path d="M405.329,266.659c5.875,0,10.656-4.766,10.656-10.672c0-5.891-4.781-10.656-10.656-10.656
	c-5.906,0-10.672,4.765-10.672,10.656C394.657,261.893,399.423,266.659,405.329,266.659z"/>
<path d="M362.659,330.648c-5.891,0-10.672,4.78-10.672,10.687c0,5.875,4.781,10.656,10.672,10.656s10.671-4.781,10.671-10.656
	C373.33,335.429,368.55,330.648,362.659,330.648z"/>
<path d="M383.986,287.993c-5.891,0-10.656,4.781-10.656,10.656c0,5.906,4.766,10.688,10.656,10.688s10.655-4.781,10.655-10.688
	C394.641,292.774,389.876,287.993,383.986,287.993z"/>
<path d="M341.331,287.993c-5.906,0-10.671,4.781-10.671,10.656c0,5.906,4.765,10.688,10.671,10.688
	c5.875,0,10.656-4.781,10.656-10.688C351.987,292.774,347.206,287.993,341.331,287.993z"/>
<path d="M234.656,330.648c-5.89,0-10.664,4.78-10.664,10.687c0,5.875,4.773,10.656,10.664,10.656s10.672-4.781,10.672-10.656
	C245.327,335.429,240.546,330.648,234.656,330.648z"/>
<path d="M277.334,330.648c-5.897,0-10.679,4.78-10.679,10.687c0,5.875,4.781,10.656,10.679,10.656
	c5.875,0,10.655-4.781,10.655-10.656C287.989,335.429,283.209,330.648,277.334,330.648z"/>
<path d="M266.655,383.99c0-5.906-4.773-10.656-10.664-10.656s-10.664,4.75-10.664,10.656c0,5.905,4.773,10.655,10.664,10.655
	C261.882,394.645,266.655,389.895,266.655,383.99z"/>
<path d="M223.992,383.99c0-5.906-4.773-10.656-10.664-10.656c-5.89,0-10.671,4.75-10.671,10.656c0,5.905,4.781,10.655,10.671,10.655
	C219.219,394.645,223.992,389.895,223.992,383.99z"/>
<path d="M309.333,383.99c0-5.906-4.781-10.656-10.688-10.656c-5.875,0-10.656,4.75-10.656,10.656
	c0,5.905,4.781,10.655,10.656,10.655C304.552,394.645,309.333,389.895,309.333,383.99z"/>
<path d="M277.334,245.331c-5.897,0-10.679,4.765-10.679,10.656c0,5.906,4.781,10.672,10.679,10.672
	c5.875,0,10.655-4.766,10.655-10.672C287.989,250.096,283.209,245.331,277.334,245.331z"/>
<path d="M234.656,245.331c-5.89,0-10.664,4.765-10.664,10.656c0,5.906,4.773,10.672,10.664,10.672s10.672-4.766,10.672-10.672
	C245.327,250.096,240.546,245.331,234.656,245.331z"/>
<path d="M245.327,213.332c0,5.875,4.773,10.656,10.664,10.656c5.891,0,10.664-4.781,10.664-10.656
	c0-5.906-4.773-10.671-10.664-10.671S245.327,207.427,245.327,213.332z"/>
<path d="M202.657,213.332c0,5.875,4.781,10.656,10.671,10.656c5.891,0,10.664-4.781,10.664-10.656
	c0-5.906-4.773-10.671-10.664-10.671C207.438,202.661,202.657,207.427,202.657,213.332z"/>
<path d="M287.989,213.332c0,5.875,4.781,10.656,10.656,10.656c5.906,0,10.688-4.781,10.688-10.656
	c0-5.906-4.781-10.671-10.688-10.671C292.77,202.661,287.989,207.427,287.989,213.332z"/>
<path d="M511.919,235.706L511.919,235.706c0.047-0.344,0.062-0.688,0.062-1.047c0-5.89-4.781-10.671-10.656-10.671h-34.873
	c0.938-7.062,1.656-14.187,2.141-21.327h0.734l0,0c2.719,0,5.452-1.047,7.53-3.125c4.156-4.171,4.156-10.921,0-15.078
	c-2.078-2.093-4.812-3.125-7.53-3.125l0,0h-21.828c0.328-3.531,0.484-7.078,0.484-10.671c0-64.794-52.529-117.324-117.323-117.324
	c-41.515,0-77.981,21.546-98.84,54.061c-15.296-7.297-32.413-11.406-50.49-11.406c-53.709,0-98.973,36.093-112.902,85.341H42.663
	l0,0c-2.727,0-5.461,1.031-7.539,3.125c-4.164,4.156-4.164,10.906,0,15.078c2.078,2.078,4.812,3.125,7.539,3.125l0,0h0.727
	c0.484,7.14,1.203,14.265,2.148,21.327H10.664l0,0C4.774,223.989,0,228.77,0,234.66c0,0.359,0.016,0.703,0.055,1.047l0,0
	c0,0.016,0,0.031,0,0.031s0,0.016,0,0.031c0.172,1.625,1.703,14.406,10.062,29.375c7.898,14.132,23.616,32.881,53.654,41.943l0,0
	h4.141c17.71,42.686,43.842,80.09,75.521,107.027l-8.039,23.217h-7.398l0,0c-5.891,0-10.664,4.75-10.664,10.656
	s4.773,10.656,10.664,10.656l0,0h255.959h0.031c5.89,0,10.655-4.75,10.655-10.656s-4.766-10.656-10.655-10.656h-0.031l0,0h-7.078
	l-7.858-23.592c31.467-26.938,57.435-64.186,75.059-106.652h4.125l0,0l0,0c30.046-9.062,45.764-27.812,53.654-41.943
	c8.375-14.969,9.906-27.75,10.062-29.375c0-0.016,0-0.031,0-0.031S511.919,235.722,511.919,235.706z M277.334,170.662
	c0-29.421,23.905-53.326,53.326-53.326c29.405,0,53.326,23.905,53.326,53.326c0,3.656-0.375,7.218-1.094,10.671h-22.061
	c1.172-3.344,1.828-6.938,1.828-10.671c0-17.671-14.328-31.999-31.999-31.999s-32.015,14.328-32.015,31.999
	c0,3.734,0.656,7.328,1.844,10.671h-22.077C277.709,177.881,277.334,174.318,277.334,170.662z M319.989,170.662
	c0-5.891,4.78-10.672,10.671-10.672c5.874,0,10.671,4.781,10.671,10.672c0,5.875-4.781,10.671-10.671,10.671h-0.016
	C324.769,181.334,319.989,176.537,319.989,170.662z M138.714,181.334c9.734-12.937,25.202-21.343,42.616-21.343
	c12,0,23.077,4,31.999,10.718c0,3.578,0.164,7.125,0.484,10.625H138.714z M262.78,102.774c18.132-18.125,42.24-28.108,67.88-28.108
	s49.748,9.984,67.872,28.108c18.141,18.14,28.124,42.249,28.124,67.888c0,3.578-0.203,7.14-0.578,10.671h-21.53
	c0.5-3.5,0.781-7.062,0.781-10.671c0-41.233-33.436-74.669-74.669-74.669s-74.669,33.436-74.669,74.669
	c0,3.609,0.266,7.171,0.766,10.671h-21.516c-0.383-3.531-0.578-7.094-0.578-10.671C234.663,145.023,244.648,120.914,262.78,102.774z
	 M113.449,145.444c18.132-18.14,42.233-28.108,67.88-28.108c14.289,0,28.1,3.109,40.67,9c-2.703,6.625-4.828,13.531-6.296,20.702
	c-10.289-5.359-21.976-8.375-34.374-8.375c-29.788,0-55.482,17.453-67.466,42.67H90.786
	C95.489,167.991,103.145,155.741,113.449,145.444z M24.328,245.331h24.78c2.539,12.609,5.789,25.015,9.71,37.1
	C37.765,272.556,28.414,256.346,24.328,245.331z M319.958,437.331c0-5.905-4.781-10.687-10.656-10.687l0,0H202.657l0,0l0,0
	c-5.891,0-10.664,4.781-10.664,10.687h-34.022l7.398-21.342h181.899l7.125,21.342H319.958z M358.44,394.645h-59.795h-42.654h-42.663
	h-59.794c-11.117-9.905-21.585-21.405-31.296-34.404c-2.773-3.719-5.445-7.5-8.031-11.375c1.93-1.938,3.125-4.594,3.125-7.531
	c0-5.906-4.781-10.687-10.671-10.687c-1.164,0-2.281,0.219-3.328,0.562c-4.336-7.688-8.352-15.593-12.015-23.718
	c2.82-1.938,4.679-5.156,4.679-8.844c0-5.875-4.773-10.656-10.664-10.656c-0.664,0-1.312,0.062-1.945,0.188
	c-10.125-27.287-16.507-56.317-18.616-85.52h148.557h42.662h42.654h148.557c-2.094,29.202-8.484,58.232-18.608,85.52
	c-0.641-0.125-1.281-0.188-1.938-0.188c-5.89,0-10.671,4.781-10.671,10.656c0,3.688,1.859,6.906,4.688,8.844
	c-3.672,8.125-7.688,16.03-12.031,23.718c-1.031-0.375-2.156-0.562-3.312-0.562c-5.906,0-10.672,4.78-10.672,10.687
	c0,2.938,1.188,5.594,3.109,7.531c-2.578,3.875-5.25,7.656-8.031,11.375C380.033,373.24,369.565,384.74,358.44,394.645z
	 M453.171,282.431c3.906-12.085,7.156-24.491,9.703-37.1h24.779C483.56,256.362,474.201,272.556,453.171,282.431z"/>
<g>
</g>
<g>
</g>
<g>
</g>
<g>
</g>
<g>
</g>
<g>
</g>
<g>
</g>
<g>
</g>
<g>
</g>
<g>
</g>
<g>
</g>
<g>
</g>
<g>
</g>
<g>
</g>
<g>
</g>
</svg>
