<svg id="Filled" height="512" viewBox="0 0 512 512" width="512" xmlns="http://www.w3.org/2000/svg"><rect fill="#e9eef2" height="272" rx="16" width="464" x="24" y="104"/><rect fill="#dadcde" height="208" rx="16" width="400" x="56" y="136"/><path d="m440 408h-368a16 16 0 0 1 -16-16v-16h400v16a16 16 0 0 1 -16 16z" fill="#c3c6c7"/><path d="m88 168h336v176h-336z" fill="#c3c6c7"/><path d="m472 96h-432a24.028 24.028 0 0 0 -24 24v240a24.028 24.028 0 0 0 24 24h8v8a24.028 24.028 0 0 0 24 24h368a24.028 24.028 0 0 0 24-24v-8h8a24.028 24.028 0 0 0 24-24v-240a24.028 24.028 0 0 0 -24-24zm-24 296a8.009 8.009 0 0 1 -8 8h-368a8.009 8.009 0 0 1 -8-8v-8h384zm32-32a8.009 8.009 0 0 1 -8 8h-432a8.009 8.009 0 0 1 -8-8v-240a8.009 8.009 0 0 1 8-8h432a8.009 8.009 0 0 1 8 8z"/><path d="m440 128h-368a24.028 24.028 0 0 0 -24 24v176a24.028 24.028 0 0 0 24 24h368a24.028 24.028 0 0 0 24-24v-176a24.028 24.028 0 0 0 -24-24zm0 208h-8v-136a8 8 0 0 0 -16 0v136h-320v-136a8 8 0 0 0 -16 0v136h-8a8.009 8.009 0 0 1 -8-8v-172.685l18.343 18.342a8 8 0 0 0 11.314-11.314l-18.343-18.343h361.371l-18.342 18.343a8 8 0 0 0 11.314 11.314l18.343-18.342v172.685a8.009 8.009 0 0 1 -8 8z"/><path d="m392 160h-272a8 8 0 0 0 0 16h272a8 8 0 0 0 0-16z"/></svg>