<svg height="496pt" viewBox="-64 0 496 496" width="496pt" xmlns="http://www.w3.org/2000/svg"><g fill="#fcd770"><path d="m328 456c16.398438 0 30 12.398438 31.761719 28.320312l.238281 3.679688h-352l.238281-3.679688c.800781-7.359374 4.160157-13.921874 9.121094-18.960937 5.839844-5.757813 13.839844-9.359375 22.640625-9.359375zm0 0"/><path d="m344 208v16c0 4.398438-3.601562 8-8 8h-24v-32h24c4.398438 0 8 3.601562 8 8zm0 0"/><path d="m56 200v32h-24c-4.398438 0-8-3.601562-8-8v-16c0-4.398438 3.601562-8 8-8zm0 0"/></g><path d="m312 232v144c0 26.480469-21.519531 48-48 48h-160c-26.480469 0-48-21.519531-48-48v-320c0-26.480469 21.519531-48 48-48h160c26.480469 0 48 21.519531 48 48zm0 0" fill="#e6e9ed"/><path d="m280 64v304c0 13.28125-10.71875 24-24 24h-144c-13.28125 0-24-10.71875-24-24v-304c0-13.28125 10.71875-24 24-24h144c13.28125 0 24 10.71875 24 24zm0 0" fill="#69d6f4"/><path d="m112 400h144c17.648438 0 32-14.351562 32-32v-304c0-17.648438-14.351562-32-32-32h-144c-17.648438 0-32 14.351562-32 32v304c0 17.648438 14.351562 32 32 32zm-16-336c0-8.824219 7.175781-16 16-16h144c8.824219 0 16 7.175781 16 16v304c0 8.824219-7.175781 16-16 16h-144c-8.824219 0-16-7.175781-16-16zm0 0"/><path d="m367.953125 487.519531h.03125l-15.984375-263.742187v-15.777344c0-8.824219-7.175781-16-16-16h-16v-136c0-30.871094-25.121094-56-56-56h-160c-30.878906 0-56 25.128906-56 56v136h-16c-8.824219 0-16 7.175781-16 16v15.777344l-15.984375 263.734375h.03125c0 .167969-.046875.320312-.046875.488281v8h368v-8c0-.167969-.046875-.320312-.046875-.480469zm-31.953125-279.519531v16h-16v-16zm-272-152c0-22.054688 17.945312-40 40-40h160c22.054688 0 40 17.945312 40 40v320c0 22.054688-17.945312 40-40 40h-160c-22.054688 0-40-17.945312-40-40zm-32 152h16v16h-16zm16 32v136c0 30.871094 25.121094 56 56 56h160c30.878906 0 56-25.128906 56-56v-136h16c.328125 0 .632812-.078125.953125-.097656l13.015625 214.730468c-6.320312-4.167968-13.855469-6.632812-21.96875-6.632812h-288c-8.113281 0-15.648438 2.464844-21.960938 6.632812l13.015626-214.730468c.3125.019531.617187.097656.945312.097656zm-30.632812 240c3.304687-9.3125 12.199218-16 22.632812-16h288c10.433594 0 19.328125 6.6875 22.632812 16zm0 0"/><path d="m123.335938 286.507812 9.292968-13.011718 111.996094 79.996094-9.292969 13.015624zm0 0"/><path d="m123.335938 222.511719 9.296874-13.011719 111.996094 79.996094-9.292968 13.011718zm0 0"/><path d="m123.339844 158.515625 9.292968-13.015625 111.996094 80-9.292968 13.011719zm0 0"/><path d="m123.339844 94.515625 9.296875-13.011719 111.996093 79.996094-9.292968 13.011719zm0 0"/></svg>