<svg id="Filled" height="512" viewBox="0 0 512 512" width="512" xmlns="http://www.w3.org/2000/svg"><path d="m176 352h160v48h-160z" fill="#414649"/><path d="m256 24c-123.712 0-224 42.98-224 96v240h448v-240c0-53.02-100.288-96-224-96zm-112 88c0-26.51 50.144-48 112-48s112 21.49 112 48z" fill="#7e8589"/><path d="m448 328v-176l-176 176z" fill="#a0a8b3"/><path d="m272 328 176-176h-176z" fill="#ced8dc"/><path d="m64 328v-176l176 176z" fill="#a0a8b3"/><path d="m240 328-176-176h176z" fill="#ced8dc"/><path d="m136 488h-32l-8-48h48z" fill="#414649"/><path d="m408 488h-32l-8-48h48z" fill="#414649"/><path d="m32 392v32c0 17.673 100.288 32 224 32s224-14.327 224-32v-32z" fill="#7e8589"/><path d="m240 144h-176a8.029 8.029 0 0 0 -8 8v176a8 8 0 0 0 8 8h176a8 8 0 0 0 8-8v-176a8 8 0 0 0 -8-8zm-168 176v-148.688l148.688 148.688zm160-11.312-148.688-148.688h148.688z"/><path d="m144 192h56v56a8 8 0 0 0 16 0v-64a8 8 0 0 0 -8-8h-64a8 8 0 0 0 0 16z"/><path d="m448 144h-176a8 8 0 0 0 -8 8v176a8.028 8.028 0 0 0 8 8h176a8 8 0 0 0 8-8v-176a8 8 0 0 0 -8-8zm-168 16h148.688l-148.688 148.688zm160 160h-148.688l148.688-148.688z"/><path d="m368 176h-64a8 8 0 0 0 -8 8v64a8 8 0 0 0 16 0v-56h56a8 8 0 0 0 0-16z"/><path d="m96 304h64a8 8 0 0 0 0-16h-56v-56a8 8 0 0 0 -16 0v64a8 8 0 0 0 8 8z"/><path d="m352 304h64a8 8 0 0 0 8-8v-64a8 8 0 0 0 -16 0v56h-56a8 8 0 0 0 0 16z"/><path d="m32 384a8 8 0 0 0 -8 8v32c0 9.636 8.175 20.62 66.155 29.578l5.954 35.734a8 8 0 0 0 7.891 6.688h32a8 8 0 0 0 7.891-6.688l4.866-29.188c32.584 2.526 69.193 3.876 107.243 3.876s74.662-1.35 107.247-3.876l4.862 29.188a8 8 0 0 0 7.891 6.688h32a8 8 0 0 0 7.891-6.688l5.955-35.734c57.979-8.958 66.154-19.942 66.154-29.578v-32a8 8 0 0 0 -8-8h-136v-16h136a8 8 0 0 0 8-8v-240c0-58.32-101.906-104-232-104s-232 45.68-232 104v240a8 8 0 0 0 8 8h136v16zm97.227 96h-18.454l-4.017-24.121c8.277 1.048 16.9 2.018 26.012 2.872zm272 0h-18.446l-3.543-21.249c9.109-.854 17.732-1.824 26.007-2.872zm-361.227-128v-232c0-47.7 98.914-88 216-88s216 40.3 216 88v232zm288 16v16h-144v-16zm144 32v23.055c-8.914 10.351-89.539 24.945-216 24.945s-207.086-14.594-216-24.945v-23.055z"/><path d="m144 120h224a8 8 0 0 0 8-8c0-31.922-51.586-56-120-56s-120 24.078-120 56a8 8 0 0 0 8 8zm112-48c52.719 0 91.7 15.594 101.562 32h-203.124c9.867-16.406 48.843-32 101.562-32z"/></svg>