<svg id="Capa_1" enable-background="new 0 0 512 512" height="512" viewBox="0 0 512 512" width="512" xmlns="http://www.w3.org/2000/svg"><g><g><g><path d="m329.541 395.506c-9.184 0-16.64-7.433-16.662-16.622-.022-9.203 7.419-16.681 16.622-16.704 9.564-.023 19.241-.453 28.762-1.277 7.043-.61 16.23-1.601 24.831-3.874 5.008-1.324 9.94-3.12 14.659-5.339 22.108-10.395 37.832-29.541 42.063-51.217 1.007-5.163 4.922-31.309-17.028-39.089-12.828-4.547-30.73-.498-41.636 9.422-6.809 6.191-17.347 5.691-23.539-1.116-6.191-6.808-5.692-17.347 1.116-23.539 19.953-18.146 50.875-24.798 75.193-16.178 16.328 5.788 28.421 17.198 34.971 32.998 5.348 12.9 6.638 28.486 3.632 43.886-6.257 32.059-28.908 60.094-60.591 74.991-6.535 3.073-13.373 5.562-20.322 7.4-11.065 2.924-22.098 4.132-30.474 4.857-10.446.904-21.063 1.375-31.554 1.401-.014 0-.029 0-.043 0z" fill="#fae2c0"/></g></g><g><g><path d="m472.528 306.855c-6.265 32.062-28.91 60.095-60.595 74.994-6.539 3.076-13.37 5.558-20.324 7.397-11.058 2.925-22.098 4.133-30.477 4.859-10.445.906-21.06 1.378-31.552 1.396h-.038c-4.935 0-9.369-2.142-12.427-5.548 9.492-.104 19.079-.566 28.514-1.387 8.379-.717 19.409-1.925 30.477-4.85 6.945-1.84 13.785-4.331 20.324-7.407 31.675-14.889 54.33-42.922 60.586-74.984 3.01-15.399 1.717-30.986-3.633-43.885-5.454-13.172-14.767-23.296-27.174-29.646 2.623.566 5.199 1.293 7.709 2.18 16.333 5.784 28.429 17.201 34.978 32.996 5.35 12.899 6.633 28.486 3.632 43.885z" fill="#fddeb0"/></g></g><g><path d="m380.004 194.931h-324.863c-9.689 0-17.487 7.972-17.245 17.658 1.089 43.565 12.898 156.791 102.868 214.22h153.616c89.97-57.429 101.779-170.655 102.868-214.22.243-9.686-7.555-17.658-17.244-17.658z" fill="#fdf6ec"/></g><g><path d="m397.252 212.585c-1.095 43.573-12.898 156.8-102.866 214.224h-25.967c89.968-57.425 108.48-170.651 109.565-214.224.245-9.681-7.558-17.654-17.248-17.654h19.267c9.691 0 17.485 7.973 17.249 17.654z" fill="#fef1da"/></g><g><path d="m330.964 504.513h-231.237c-12.387 0-22.429-10.042-22.429-22.429v-12.383h276.095v12.383c0 12.387-10.042 22.429-22.429 22.429z" fill="#fdf6ec"/></g><g><path d="m353.389 469.703v12.378c0 12.388-10.042 22.43-22.43 22.43h-19.965c12.388 0 22.43-10.042 22.43-22.43v-12.378z" fill="#fef1da"/></g><g><path d="m361.306 469.701h-291.921c-13.118 0-23.753-10.634-23.753-23.753v-12.873c0-3.461 2.806-6.266 6.266-6.266h326.894c3.461 0 6.266 2.806 6.266 6.266v12.873c.001 13.119-10.633 23.753-23.752 23.753z" fill="#fae2c0"/></g><g><path d="m385.063 433.078v12.867c0 13.127-10.641 23.758-23.758 23.758h-20.384c13.127 0 23.758-10.631 23.758-23.758v-12.867c0-3.464-2.805-6.269-6.269-6.269h20.384c3.464 0 6.269 2.805 6.269 6.269z" fill="#fddeb0"/></g><g><g><path d="m84.234 10.736c-.633 6.247-1.51 20.545 1.209 37.502 5.828 36.343 31.59 66.536 66.562 78.011 16.317 5.354 30.575 6.739 36.844 7.097 1.933.11 3.607-1.318 3.802-3.244.633-6.247 1.51-20.545-1.209-37.502-5.828-36.342-31.59-66.536-66.562-78.011-16.317-5.354-30.576-6.739-36.844-7.097-1.933-.11-3.607 1.318-3.802 3.244z" fill="#b0e7c9"/></g><g><path d="m192.653 130.098c-.203 1.927-1.868 3.357-3.802 3.244-2.572-.144-6.502-.465-11.364-1.16.204-7.254-.065-17.008-1.801-27.84-5.824-36.34-31.591-66.529-66.561-78.01-9.623-3.156-18.525-4.932-25.495-5.934.115-4.106.376-7.4.604-9.655.193-1.927 1.868-3.357 3.803-3.254 6.27.366 20.52 1.745 36.838 7.103 34.98 11.472 60.737 41.67 66.561 78.01 2.724 16.957 1.852 31.258 1.217 37.496z" fill="#91deb6"/></g><g><path d="m351.539 49.932c.138 6.277-.117 20.6-4.166 37.289-8.679 35.769-36.744 63.834-72.513 72.513-16.689 4.049-31.012 4.304-37.289 4.166-1.936-.043-3.491-1.598-3.534-3.534-.138-6.277.117-20.6 4.166-37.289 8.679-35.769 36.744-63.834 72.513-72.513 16.689-4.049 31.012-4.304 37.289-4.166 1.936.042 3.491 1.598 3.534 3.534z" fill="#b0e7c9"/></g><g><path d="m347.37 87.217c-8.675 35.777-36.745 63.837-72.512 72.512-16.69 4.053-31.015 4.312-37.284 4.173-1.937-.05-3.494-1.597-3.534-3.534-.06-2.695-.05-6.868.299-12.079 7.127-.419 16.411-1.477 26.573-3.943 35.767-8.685 63.837-36.745 72.512-72.522 2.316-9.523 3.394-18.288 3.863-25.215 4.582-.26 8.265-.26 10.721-.21 1.937.04 3.484 1.597 3.534 3.534.13 6.279-.119 20.594-4.172 37.284z" fill="#91deb6"/></g><g><path d="m198.833 91.416c-.992-6.193-2.548-12.334-4.625-18.253-1.369-3.901-5.64-5.955-9.543-4.586-3.902 1.369-5.955 5.641-4.587 9.543 1.782 5.08 3.117 10.35 3.969 15.667 2.145 13.368 1.912 25.09 1.464 31.801-6.696-.615-18.309-2.23-31.174-6.452-32.518-10.671-56.084-38.291-61.503-72.083-2.144-13.371-1.911-25.092-1.464-31.802 6.698.616 18.314 2.232 31.175 6.452 16.202 5.317 30.56 15.077 41.522 28.225 2.648 3.176 7.369 3.604 10.545.956s3.604-7.369.956-10.545c-12.762-15.307-29.483-26.671-48.355-32.864-16.833-5.524-31.503-7.043-38.751-7.457-5.972-.333-11.077 4.038-11.676 9.963-.732 7.218-1.541 21.939 1.265 39.443 6.31 39.35 33.753 71.514 71.62 83.939 16.839 5.525 31.506 7.044 38.749 7.458.218.012.434.019.648.019 5.669 0 10.452-4.272 11.03-9.981.733-7.221 1.542-21.946-1.265-39.443z"/><path d="m127.74 87.801c.39 3.858 3.643 6.735 7.44 6.735.252 0 12.917-1.267 12.917-1.267l13.917 16.311c1.481 1.736 3.583 2.627 5.699 2.627 1.718 0 3.446-.588 4.856-1.791 3.146-2.684 3.519-7.409.835-10.555l-13.916-16.31 3.127-11.811c1.059-3.997-1.324-8.096-5.322-9.153-3.995-1.059-8.095 1.324-9.153 5.321l-.473 1.788-7.824-9.17 3.127-11.811c1.059-3.997-1.324-8.096-5.322-9.153-3.992-1.059-8.095 1.324-9.153 5.321l-.473 1.788-13.152-15.413c-2.683-3.144-7.408-3.521-10.555-.836-3.146 2.684-3.519 7.409-.835 10.555l13.151 15.413-1.84.186c-4.114.416-7.112 4.088-6.696 8.202.39 3.858 3.643 6.734 7.44 6.734.252 0 12.917-1.267 12.917-1.267l7.823 9.169-1.839.186c-4.113.416-7.112 4.087-6.696 8.201z"/></g><g><path d="m359.023 49.769c-.129-5.957-4.897-10.726-10.854-10.856-7.257-.159-21.999.197-39.219 4.375-38.73 9.397-68.628 39.294-78.023 78.023-4.179 17.223-4.535 31.965-4.375 39.216.129 5.958 4.897 10.727 10.854 10.857.823.018 1.742.03 2.75.03 7.881 0 21.202-.7 36.469-4.404 38.729-9.396 68.626-39.293 78.023-78.024 4.179-17.221 4.535-31.961 4.375-39.217zm-18.925 35.686c-8.071 33.26-33.744 58.934-67.003 67.003-13.156 3.192-24.86 3.885-31.587 3.97.085-6.725.778-18.429 3.971-31.587 8.07-33.259 33.743-58.932 67.003-67.002 13.156-3.193 24.86-3.886 31.587-3.971-.085 6.725-.779 18.43-3.971 31.587z"/><path d="m304.72 80.478c-.739-4.069-4.633-6.767-8.705-6.027-4.068.74-6.766 4.637-6.026 8.705l2.185 12.019-8.523 8.523-.33-1.819c-.74-4.068-4.641-6.764-8.704-6.028-4.068.74-6.767 4.637-6.027 8.705l2.184 12.02-15.162 15.162c-2.923 2.924-2.923 7.664 0 10.588 1.462 1.462 3.378 2.193 5.294 2.193s3.832-.731 5.294-2.193l15.161-15.161s12.923 2.307 13.367 2.307c3.548 0 6.7-2.534 7.357-6.15.74-4.068-1.959-7.965-6.027-8.704l-1.819-.33 8.524-8.523s12.923 2.307 13.367 2.307c3.548 0 6.7-2.534 7.357-6.149.74-4.068-1.958-7.965-6.027-8.705l-1.819-.331 14.327-14.327c2.923-2.923 2.923-7.664 0-10.588-2.924-2.924-7.663-2.924-10.589 0l-14.327 14.327z"/></g></g><path d="m475.81 260.104c-7.384-17.813-21.004-30.672-39.386-37.188-9.97-3.534-20.938-4.732-31.91-3.833.101-2.27.172-4.377.22-6.307.168-6.712-2.322-13.056-7.012-17.865-4.696-4.816-10.988-7.468-17.718-7.468h-324.863c-6.728 0-13.02 2.652-17.717 7.467-4.69 4.808-7.18 11.153-7.013 17.865.517 20.637 3.61 61.615 18.523 104.198 15.024 42.899 38.115 77.221 68.78 102.348h-65.815c-7.584 0-13.754 6.17-13.754 13.753v12.873c0 17.225 14.014 31.24 31.24 31.24h.427v4.896c0 16.497 13.42 29.917 29.915 29.917h231.236c16.496 0 29.917-13.42 29.917-29.916v-4.896h.426c17.225 0 31.24-14.014 31.24-31.24v-12.873c0-7.584-6.17-13.753-13.753-13.753h-61.363c6.212-5.093 12.115-10.56 17.701-16.401 8.89-.151 17.828-.593 26.65-1.357 8.675-.751 20.123-2.007 31.743-5.078 7.385-1.953 14.651-4.598 21.594-7.863 4.006-1.883 7.948-4.002 11.715-6.298 3.531-2.152 4.649-6.759 2.498-10.289-2.151-3.532-6.76-4.648-10.288-2.498-3.311 2.017-6.773 3.879-10.295 5.535-6.127 2.881-12.536 5.215-19.049 6.937-10.514 2.778-21.131 3.937-29.207 4.636-3.975.344-7.977.609-11.987.819 4.799-6.133 9.308-12.599 13.53-19.39 6.83-.659 15.064-1.718 22.974-3.808 5.441-1.438 10.8-3.391 15.931-5.802 24.26-11.408 41.54-32.551 46.225-56.557 3.354-17.183-.361-39.954-21.874-47.58-7.266-2.576-15.672-2.922-23.892-1.353.935-6.744 1.621-13.066 2.123-18.845 9.584-1.065 19.215-.179 27.9 2.899 14.275 5.06 24.841 15.022 30.557 28.809 4.79 11.554 5.926 25.612 3.198 39.584-3.011 15.426-10.266 30.212-20.98 42.76-2.685 3.144-2.312 7.87.833 10.555 3.147 2.686 7.869 2.312 10.556-.832 12.385-14.506 20.784-31.662 24.289-49.614 3.283-16.829 1.84-33.942-4.065-48.187zm-129.903 221.98c0 8.239-6.704 14.942-14.943 14.942h-231.237c-8.239 0-14.942-6.703-14.942-14.942v-4.896h261.122zm31.666-36.136c0 8.969-7.297 16.266-16.266 16.266h-291.922c-8.969 0-16.266-7.297-16.266-16.266v-11.653h324.454zm-85.407-26.626h-149.187c-29.698-19.563-94.347-76.968-97.598-206.919-.066-2.643.915-5.142 2.763-7.036 1.855-1.902 4.34-2.949 6.997-2.949h324.863c2.658 0 5.144 1.047 6.998 2.949 1.847 1.895 2.828 4.393 2.762 7.035-3.248 129.95-67.9 187.357-97.598 206.92zm128.121-150.881c15.755 5.585 13.306 24.832 12.181 30.598-3.775 19.341-17.943 36.491-37.899 45.875-4.314 2.028-8.817 3.668-13.386 4.876-3.254.86-6.623 1.521-9.93 2.048 5.643-10.905 10.637-22.526 14.958-34.864 5.796-16.551 9.801-32.853 12.569-47.819 7.293-2.487 15.271-2.925 21.507-.714z"/></g></svg>