<svg id="Capa_1" enable-background="new 0 0 512 512" height="512" viewBox="0 0 512 512" width="512" xmlns="http://www.w3.org/2000/svg"><g><g><circle cx="417" cy="95" fill="#fff5f5" r="80"/><path d="m417 15v160c44.183 0 80-35.817 80-80s-35.817-80-80-80z" fill="#ebe1dc"/><path d="m417 190c-52.383 0-95-42.617-95-95s42.617-95 95-95 95 42.617 95 95-42.617 95-95 95zm0-160c-35.841 0-65 29.159-65 65s29.159 65 65 65 65-29.159 65-65-29.159-65-65-65z" fill="#beebfa"/><path d="m417 0v30c35.841 0 65 29.159 65 65s-29.159 65-65 65v30c52.383 0 95-42.617 95-95s-42.617-95-95-95z" fill="#96c8ef"/><path d="m437 110h-20c-8.284 0-15-6.716-15-15v-20c0-8.284 6.716-15 15-15 8.284 0 15 6.716 15 15v5h5c8.284 0 15 6.716 15 15 0 8.284-6.716 15-15 15z" fill="#6c5d58"/><path d="m437 80h-5v-5c0-8.284-6.716-15-15-15v50h20c8.284 0 15-6.716 15-15s-6.716-15-15-15z" fill="#504541"/></g><g><path d="m375 512h-280c-52.383 0-95-42.617-95-95v-45.851c0-39.077 23.445-73.702 59.73-88.21l.15-.061c27.371-10.944 48.429-33.271 57.758-61.252l4.894-14.678c12.954-38.846 49.172-64.948 90.123-64.948h44.691c40.951 0 77.167 26.101 90.122 64.948l4.89 14.665c9.34 28.008 30.423 50.345 57.845 61.284 36.325 14.494 59.797 49.128 59.797 88.238v45.865c0 52.383-42.617 95-95 95z" fill="#7f6d67"/><path d="m410.202 282.897c-27.421-10.939-48.505-33.276-57.845-61.284l-4.89-14.665c-12.953-38.847-49.17-64.948-90.121-64.948h-22.346v370h140c52.383 0 95-42.617 95-95v-45.865c0-39.11-23.472-73.744-59.798-88.238z" fill="#6c5d58"/><path d="m265 342c-8.284 0-15-6.716-15-15 0-20.656 9.475-39.615 25.996-52.014 6.627-4.972 16.029-3.632 21.001 2.993 4.973 6.626 3.633 16.028-2.993 21.001-8.9 6.679-14.004 16.892-14.004 28.02 0 8.284-6.716 15-15 15z" fill="#504541"/><path d="m205 342c-8.284 0-15-6.716-15-15 0-11.128-5.104-21.341-14.003-28.02-6.626-4.973-7.966-14.375-2.993-21.001s14.375-7.967 21.001-2.993c16.52 12.399 25.995 31.358 25.995 52.014 0 8.284-6.716 15-15 15z" fill="#6c5d58"/><path d="m165.622 387h138.756c21.583 0 41.248-11.562 51.872-29.851-21.729-28.348-55.507-45.149-91.25-45.149h-60c-35.743 0-69.521 16.801-91.25 45.149 10.624 18.289 30.289 29.851 51.872 29.851z" fill="#fff5f5"/><path d="m265 312h-30v75h69.378c21.583 0 41.248-11.562 51.872-29.851-21.729-28.348-55.507-45.149-91.25-45.149z" fill="#ebe1dc"/><path d="m304.378 402h-138.756c-30.846 0-58.18-18.506-69.636-47.146l-4.914-12.283c-3.077-7.691.665-16.422 8.356-19.498 7.693-3.081 16.422.664 19.499 8.355l4.914 12.283c6.873 17.185 23.274 28.289 41.781 28.289h138.756c18.507 0 34.908-11.104 41.781-28.288l4.914-12.283c3.078-7.691 11.807-11.433 19.499-8.355 7.691 3.076 11.433 11.807 8.356 19.498l-4.914 12.283c-11.456 28.639-38.79 47.145-69.636 47.145z" fill="#6c5d58"/><path d="m370.571 323.073c-7.692-3.077-16.421.664-19.499 8.355l-4.914 12.283c-6.872 17.185-23.273 28.289-41.78 28.289h-69.378v30h69.378c30.846 0 58.18-18.506 69.636-47.146l4.914-12.283c3.076-7.691-.665-16.422-8.357-19.498z" fill="#504541"/></g></g></svg>