<svg height="512" viewBox="0 0 64 64" width="512" xmlns="http://www.w3.org/2000/svg"><g id="Clothes_line" data-name="Clothes line"><path d="m61 17v4h-4-4-6-8v-4h8 6 4z" fill="#ff9811"/><path d="m55 3a4 4 0 1 1 -4 4 4 4 0 0 1 4-4z" fill="#ff9811"/><path d="m53 21h4v40h-4z" fill="#ff7956"/><path d="m57 10.46v6.54h-4v-6.54a3.974 3.974 0 0 0 4 0z" fill="#ff7956"/><path d="m47 21v20a2.006 2.006 0 0 1 -2 2h-6v-22z" fill="#ffc477"/><path d="m47 17h-8a4 4 0 1 1 8 0z" fill="#ffc477"/><path d="m21 13h22a4 4 0 0 0 -4 4v29h-22v-29a4 4 0 0 1 4-4z" fill="#ffde55"/><path d="m39 49v2a2.006 2.006 0 0 1 -2 2h-18a2.006 2.006 0 0 1 -2-2v-2z" fill="#ffde55"/><path d="m17 46h22v3h-22z" fill="#ffc477"/><path d="m17 17v4h-6-4-4v-4h4 4z" fill="#ff9811"/><path d="m9 3a4 4 0 1 1 -4 4 4 4 0 0 1 4-4z" fill="#ff9811"/><path d="m7 21h4v40h-4z" fill="#ff7956"/><path d="m11 10.46v6.54h-4v-6.54a3.974 3.974 0 0 0 4 0z" fill="#ff7956"/><path d="m61 16h-3v-5.026a5 5 0 1 0 -6 0v5.026h-4.1a5.009 5.009 0 0 0 -4.9-4h-22a5.009 5.009 0 0 0 -4.9 4h-4.1v-5.026a5 5 0 1 0 -6 0v5.026h-3a1 1 0 0 0 -1 1v4a1 1 0 0 0 1 1h3v39a1 1 0 0 0 1 1h4a1 1 0 0 0 1-1v-39h4v29a3 3 0 0 0 3 3h18a3 3 0 0 0 3-3v-7h5a3 3 0 0 0 3-3v-19h4v39a1 1 0 0 0 1 1h4a1 1 0 0 0 1-1v-39h3a1 1 0 0 0 1-1v-4a1 1 0 0 0 -1-1zm-6-12a3 3 0 1 1 -3 3 3 3 0 0 1 3-3zm-1 7.9a5 5 0 0 0 2 0v4.1h-2zm-8.184 4.1h-5.632a2.982 2.982 0 0 1 5.632 0zm-24.816-2h18.026a4.948 4.948 0 0 0 -1.026 3v28h-20v-28a3 3 0 0 1 3-3zm-3 33h20v1h-20zm-9-43a3 3 0 1 1 -3 3 3 3 0 0 1 3-3zm-1 7.9a5 5 0 0 0 2 0v4.1h-2zm2 48.1h-2v-38h2zm-6-40v-2h12v2zm33 32h-18a1 1 0 0 1 -1-1v-1h20v1a1 1 0 0 1 -1 1zm9-11a1 1 0 0 1 -1 1h-5v-20h6zm10 19h-2v-38h2zm4-40h-20v-2h20z"/></g></svg>