<svg id="Capa_1" enable-background="new 0 0 512 512" height="512" viewBox="0 0 512 512" width="512" xmlns="http://www.w3.org/2000/svg"><g><g><path clip-rule="evenodd" d="m58.216 209.068h128.407v-36.518c0-22.615-18.51-41.115-41.102-41.115h-46.203c-22.592 0-41.102 18.5-41.102 41.115z" fill="#a0e5a5" fill-rule="evenodd"/></g><g><path clip-rule="evenodd" d="m325.377 209.068h128.379v-36.518c0-22.615-18.482-41.115-41.073-41.115h-46.233c-22.592 0-41.073 18.5-41.073 41.115z" fill="#a0e5a5" fill-rule="evenodd"/></g><g><path clip-rule="evenodd" d="m229.001 28.265v65.829c0 6.186 5.046 11.265 11.253 11.265h15.732 15.76c6.179 0 11.253-5.079 11.253-11.265v-65.829c0-6.214-5.074-11.265-11.253-11.265h-31.492c-6.208 0-11.253 5.051-11.253 11.265z" fill="#ffd4b5" fill-rule="evenodd"/></g><g><path clip-rule="evenodd" d="m34.944 401.364h174.951l-15.221-192.296h-8.051-128.407-8.05z" fill="#faf7f5" fill-rule="evenodd"/></g><g><path clip-rule="evenodd" d="m302.105 401.364h174.922l-15.193-192.296h-8.079-128.378-8.079l-4.082 51.727h78.292v75.165h-84.244z" fill="#faf7f5" fill-rule="evenodd"/></g><g><path clip-rule="evenodd" d="m307.264 335.96h84.244v-75.165h-78.292z" fill="#ebddd9" fill-rule="evenodd"/></g><g><path clip-rule="evenodd" d="m132.256 453.573h247.488 82.487 23.811c8.759 0 15.959-7.179 15.959-15.975v-20.26c0-8.768-7.2-15.975-15.959-15.975h-9.014-174.923-46.119-46.09-174.952-8.986c-8.787 0-15.959 7.207-15.959 15.975v20.26c0 8.796 7.172 15.975 15.959 15.975h23.782z" fill="#ffa96b" fill-rule="evenodd"/></g><g><path clip-rule="evenodd" d="m379.744 453.573h82.487v41.427h-82.487z" fill="#ffd4b5" fill-rule="evenodd"/></g><g><path clip-rule="evenodd" d="m49.741 453.573h82.515v41.427h-82.515z" fill="#ffd4b5" fill-rule="evenodd"/></g><g><path d="m87.587 369.252c.269.021.535.032.8.032 5.165 0 9.544-3.974 9.958-9.211l8.561-108.136c.436-5.505-3.674-10.322-9.18-10.758-5.509-.437-10.322 3.674-10.758 9.18l-8.561 108.136c-.435 5.505 3.674 10.322 9.18 10.757z"/><path d="m146.494 360.073c.414 5.237 4.793 9.211 9.958 9.211.265 0 .531-.01.8-.032 5.506-.436 9.615-5.252 9.18-10.758l-8.56-108.136c-.436-5.506-5.244-9.625-10.758-9.18-5.506.436-9.615 5.252-9.18 10.758z"/><path d="m486.269 391.37-13.614-172.301h4.939c5.522 0 10-4.477 10-10s-4.478-10-10-10h-13.839v-26.519c0-28.185-22.911-51.115-51.073-51.115h-46.232c-28.162 0-51.073 22.93-51.073 51.115v26.519h-13.867c-5.522 0-10 4.477-10 10s4.478 10 10 10h4.967l-9.148 115.78c-.012.106-.017.213-.025.32l-4.44 56.196h-26.878v-276.006h5.761c11.719 0 21.253-9.539 21.253-21.265v-65.83c-.001-11.725-9.535-21.264-21.254-21.264h-31.492c-11.719 0-21.253 9.539-21.253 21.265v65.83c0 11.726 9.534 21.265 21.253 21.265h5.731v276.005h-26.85l-13.639-172.295h4.965c5.522 0 10-4.477 10-10s-4.478-10-10-10h-13.839v-26.52c0-28.185-22.924-51.115-51.102-51.115h-46.202c-28.178 0-51.102 22.93-51.102 51.115v26.519h-13.838c-5.522 0-10 4.477-10 10s4.478 10 10 10h4.965l-13.639 172.301c-14.196.138-25.704 11.732-25.704 25.968v20.26c0 14.322 11.646 25.975 25.959 25.975h13.782v31.427c0 5.523 4.478 10 10 10h82.515c5.522 0 10-4.477 10-10v-31.427h68.83c5.522 0 10-4.477 10-10s-4.478-10-10-10h-185.127c-3.286 0-5.959-2.68-5.959-5.975v-20.26c0-3.239 2.729-5.975 5.959-5.975h8.984.012.01 174.909.01.012 92.206.012.01 174.881.01.012 9.012c3.23 0 5.959 2.736 5.959 5.975v20.26c0 3.239-2.729 5.975-5.959 5.975h-185.153c-5.522 0-10 4.477-10 10s4.478 10 10 10h68.858v31.427c0 5.523 4.478 10 10 10h82.486c5.522 0 10-4.477 10-10v-31.427h13.811c14.313 0 25.959-11.652 25.959-25.975v-20.26c0-14.245-11.523-25.845-25.731-25.968zm-247.268-297.276v-65.83c0-.686.574-1.265 1.253-1.265h31.492c.667 0 1.253.591 1.253 1.265v65.83c0 .662-.598 1.265-1.253 1.265h-31.492c-.667 0-1.253-.591-1.253-1.265zm-116.745 390.906h-62.515v-21.427h62.515zm213.121-312.45c0-17.157 13.939-31.115 31.073-31.115h46.231c17.134 0 31.073 13.958 31.073 31.115v26.519h-108.377zm-12.925 98.245h59.056v55.165h-63.415zm-5.939 75.165h74.995c5.522 0 10-4.477 10-10v-75.165c0-5.523-4.478-10-10-10h-67.476l2.507-31.727h126.055l13.613 172.295h-153.281zm-131.079-126.892 13.639 172.295h-153.306l13.639-172.295zm-117.217-46.518c0-17.157 13.952-31.115 31.102-31.115h46.203c17.149 0 31.102 13.958 31.102 31.115v26.519h-108.407zm384.013 312.45h-62.486v-21.427h62.486z"/><path d="m255.985 443.573c-5.522 0-10 4.477-10 10s4.478 10 10 10h.058c5.522 0 9.972-4.477 9.972-10s-4.507-10-10.03-10z"/></g></g></svg>