<?xml version="1.0" encoding="iso-8859-1"?>
<!-- Generator: Adobe Illustrator 19.0.0, SVG Export Plug-In . SVG Version: 6.00 Build 0)  -->
<svg version="1.1" id="Capa_1" xmlns="http://www.w3.org/2000/svg" xmlns:xlink="http://www.w3.org/1999/xlink" x="0px" y="0px"
	 viewBox="0 0 512 512" style="enable-background:new 0 0 512 512;" xml:space="preserve">
<g>
	<rect y="113" style="fill:#93D6F4;" width="512" height="30"/>
	<rect y="177" style="fill:#93D6F4;" width="512" height="30"/>
	<rect y="241" style="fill:#93D6F4;" width="512" height="30"/>
	<rect y="305" style="fill:#93D6F4;" width="512" height="30"/>
	<rect y="369" style="fill:#93D6F4;" width="512" height="30"/>
</g>
<path style="fill:#BF3B13;" d="M489.667,409.667H22.333V102.333h467.333L489.667,409.667L489.667,409.667z"/>
<path style="fill:#942308;" d="M489.667,409.667H257V102.333h232.667V409.667z"/>
<path style="fill:#93D6F4;" d="M271,211.469v-40.802h-30v40.802c-18.58,6.276-32,23.86-32,44.531s13.42,38.255,32,44.531v40.802h30
	v-40.802c18.58-6.276,32-23.86,32-44.531S289.58,217.745,271,211.469z M256,273c-9.374,0-17-7.626-17-17s7.626-17,17-17
	s17,7.626,17,17S265.374,273,256,273z"/>
<path style="fill:#4BBAED;" d="M399,170.667h-30v58.604c0,6.468-5.262,11.73-11.73,11.73s-11.73-5.262-11.73-11.73h-30
	c0,10.162,3.656,19.484,9.715,26.73c-6.06,7.246-9.715,16.567-9.715,26.73h30c0-6.468,5.262-11.73,11.73-11.73
	S369,276.262,369,282.73v58.603h30V282.73c0-10.162-3.656-19.484-9.715-26.73c6.06-7.246,9.715-16.568,9.715-26.73V170.667z"/>
<path style="fill:#93D6F4;" d="M166.46,229.27c0,6.468-5.262,11.73-11.73,11.73S143,235.738,143,229.27v-58.604h-30v58.604
	c0,10.162,3.656,19.484,9.715,26.73c-6.06,7.246-9.715,16.567-9.715,26.73v58.603h30V282.73c0-6.468,5.262-11.73,11.73-11.73
	s11.73,5.262,11.73,11.73h30c0-10.162-3.656-19.484-9.715-26.73c6.06-7.246,9.715-16.568,9.715-26.73H166.46z"/>
<path style="fill:#4BBAED;" d="M271,211.469v-40.802h-15V239l0,0c9.374,0,17,7.626,17,17s-7.626,17-17,17l0,0v68.333h15v-40.802
	c18.58-6.276,32-23.86,32-44.531S289.58,217.745,271,211.469z"/>
<path style="fill:#FFC266;" d="M22.333,150.333v211.333h467.333V150.333H22.333z M459.667,331.667H52.333V180.333h407.333
	L459.667,331.667L459.667,331.667z"/>
<polygon style="fill:#FFAE33;" points="256,150.333 256,180.333 459.667,180.333 459.667,331.667 256,331.667 256,361.667 
	489.667,361.667 489.667,150.333 "/>
<g>
</g>
<g>
</g>
<g>
</g>
<g>
</g>
<g>
</g>
<g>
</g>
<g>
</g>
<g>
</g>
<g>
</g>
<g>
</g>
<g>
</g>
<g>
</g>
<g>
</g>
<g>
</g>
<g>
</g>
</svg>
