<svg id="Capa_1" enable-background="new 0 0 512 512" height="512" viewBox="0 0 512 512" width="512" xmlns="http://www.w3.org/2000/svg"><g><g><circle cx="193.059" cy="192.603" fill="#fafaef" r="139.147"/></g><g><ellipse cx="193.059" cy="192.603" fill="#e6e6d3" rx="96.819" ry="96.819" transform="matrix(.707 -.707 .707 .707 -79.646 192.925)"/></g><g><path d="m193.059 53.456c-5.069 0-10.072.279-15 .807 69.793 7.482 124.147 66.56 124.147 138.34s-54.354 130.859-124.147 138.34c4.928.528 9.931.807 15 .807 76.849 0 139.147-62.298 139.147-139.147 0-76.848-62.298-139.147-139.147-139.147z" fill="#e6e6d3"/></g><g><path d="m193.059 95.784c-5.102 0-10.111.397-15 1.158 46.348 7.209 81.819 47.292 81.819 95.661 0 48.37-35.471 88.452-81.819 95.661 4.889.76 9.898 1.158 15 1.158 53.472 0 96.819-43.347 96.819-96.819s-43.347-96.819-96.819-96.819z" fill="#c2c2b2"/></g><g><path d="m493.801 414.909h-107.966l19.3-144.619c.401-3.004 2.964-5.248 5.995-5.248h57.377c3.031 0 5.594 2.244 5.995 5.248z" fill="#fafaef"/></g><g><path d="m493.801 344.367h-107.966l19.3-144.619c.401-3.005 2.964-5.248 5.995-5.248h57.377c3.031 0 5.594 2.244 5.995 5.248z" fill="#e6e6d3"/></g><g><path d="m474.501 270.289c-.401-3.004-2.964-5.248-5.995-5.248h-30c3.031 0 5.594 2.244 5.995 5.248l19.3 144.619h30z" fill="#e6e6d3"/></g><g><path d="m474.501 199.748c-.401-3.005-2.964-5.248-5.995-5.248h-30c3.031 0 5.594 2.244 5.995 5.248l19.3 144.619h30z" fill="#c2c2b2"/></g><g><path d="m299.395 414.909h-212.672c-27.806 0-50.347-22.541-50.347-50.347h313.366c0 27.805-22.541 50.347-50.347 50.347z" fill="#fafaef"/></g><g><path d="m299.395 364.562h-212.672c-27.806 0-50.347-22.541-50.347-50.347h313.366c0 27.806-22.541 50.347-50.347 50.347z" fill="#e6e6d3"/></g><g><path d="m299.395 314.215h-212.672c-27.806 0-50.347-22.541-50.347-50.347h313.366c0 27.806-22.541 50.347-50.347 50.347z" fill="#fafaef"/></g><g><path d="m498.521 458.544h-485.042c-3.302 0-5.979-2.677-5.979-5.979v-31.677c0-3.302 2.677-5.979 5.979-5.979h485.042c3.302 0 5.979 2.677 5.979 5.979v31.677c0 3.302-2.677 5.979-5.979 5.979z" fill="#d4cfd5"/></g><g><path d="m493.559 264.042-107.966-.349 19.768-144.556c.411-3.003 2.981-5.239 6.012-5.229l57.377.186c3.031.01 5.587 2.262 5.978 5.268z" fill="#fafaef"/></g><g><path d="m319.742 364.562c0 27.806-22.541 50.347-50.347 50.347h30c27.806 0 50.347-22.541 50.347-50.347z" fill="#e6e6d3"/></g><g><path d="m319.742 314.215c0 27.806-22.541 50.347-50.347 50.347h30c27.806 0 50.347-22.541 50.347-50.347z" fill="#c2c2b2"/></g><g><path d="m319.742 263.868c0 27.806-22.541 50.347-50.347 50.347h30c27.806 0 50.347-22.541 50.347-50.347z" fill="#e6e6d3"/></g><g><path d="m498.521 414.909h-30c3.302 0 5.979 2.677 5.979 5.979v31.677c0 3.302-2.677 5.979-5.979 5.979h30c3.302 0 5.979-2.677 5.979-5.979v-31.677c0-3.303-2.677-5.979-5.979-5.979z" fill="#c5bec6"/></g><g><path d="m474.501 119.249c-.401-3.004-2.964-5.248-5.995-5.248h-30c3.031 0 5.594 2.244 5.995 5.248l19.3 144.619h30z" fill="#e6e6d3"/></g><path d="m500.386 407.553-7.432-55.686h.848c2.162 0 4.219-.933 5.644-2.56 1.424-1.626 2.076-3.789 1.79-5.932l-9.61-72.007h2.176c2.162 0 4.219-.933 5.644-2.56 1.424-1.626 2.076-3.789 1.791-5.932l-19.301-144.621c-.895-6.701-6.668-11.755-13.429-11.755h-57.377c-6.763 0-12.536 5.055-13.43 11.756l-19.3 144.62c-.285 2.143.367 4.306 1.791 5.932 1.425 1.627 3.482 2.56 5.644 2.56h2.175l-9.609 72.007c-.285 2.143.367 4.306 1.791 5.932 1.425 1.627 3.482 2.56 5.644 2.56h.846l-7.412 55.542h-41.052c11.679-10.591 19.025-25.877 19.025-42.847 0-4.142-3.357-7.5-7.5-7.5h-11.525c11.678-10.591 19.025-25.877 19.025-42.847 0-4.142-3.357-7.5-7.5-7.5h-11.525c11.678-10.591 19.025-25.877 19.025-42.847 0-4.142-3.357-7.5-7.5-7.5h-24.616c9.557-19.789 14.58-41.587 14.58-63.765 0-80.861-65.786-146.647-146.647-146.647s-146.649 65.786-146.649 146.647c0 22.112 5.028 43.989 14.573 63.765h-24.608c-4.143 0-7.5 3.358-7.5 7.5 0 16.97 7.346 32.256 19.025 42.847h-11.525c-4.143 0-7.5 3.358-7.5 7.5 0 16.97 7.346 32.256 19.025 42.847h-11.525c-4.143 0-7.5 3.358-7.5 7.5 0 16.97 7.346 32.256 19.025 42.847h-34.422c-7.432 0-13.479 6.046-13.479 13.479v31.677c0 7.432 6.047 13.479 13.479 13.479h366.18c4.143 0 7.5-3.358 7.5-7.5s-3.357-7.5-7.5-7.5h-364.659v-28.635h478.802 3.198v28.635h-87.341c-4.143 0-7.5 3.358-7.5 7.5s3.357 7.5 7.5 7.5h88.861c7.433 0 13.479-6.047 13.479-13.479v-31.677c.001-6.799-5.063-12.422-11.613-13.335zm-422.596-151.304c-10.715-19.363-16.379-41.371-16.379-63.646 0-72.59 59.057-131.647 131.647-131.647s131.647 59.057 131.647 131.647c0 22.381-5.677 44.334-16.449 63.765h-32.629c14.088-18.202 21.75-40.492 21.75-63.765 0-57.522-46.798-104.319-104.319-104.319s-104.319 46.797-104.319 104.319c0 23.32 7.658 45.569 21.752 63.765h-32.643c-.021-.039-.036-.08-.058-.119zm52.263.119c-.64-.684-.896-1.032-1.398-1.551-16.175-16.738-24.915-38.931-24.915-62.213 0-49.251 40.068-89.319 89.319-89.319s89.319 40.068 89.319 89.319c0 22.833-10.008 43.353-24.248 61.186-.697.872-1.168 1.661-1.881 2.579h-126.196zm-85.52 65.347h77.64c4.143 0 7.5-3.358 7.5-7.5s-3.357-7.5-7.5-7.5h-35.45c-21.067 0-38.633-15.285-42.19-35.347h297.052c-3.557 20.062-21.122 35.347-42.19 35.347h-147.222c-4.143 0-7.5 3.358-7.5 7.5s3.357 7.5 7.5 7.5h189.412c-3.557 20.062-21.122 35.347-42.19 35.347h-212.672c-21.068-.001-38.633-15.285-42.19-35.347zm42.19 85.694c-21.067 0-38.633-15.285-42.19-35.347h42.19 212.672 42.19c-3.557 20.062-21.122 35.347-42.19 35.347zm325.677-285.909h54.836l17.998 134.868h-90.832zm64.093 149.868 8.741 65.499h-90.832l8.741-65.499zm-82.091 136.041 7.413-55.542h76.007l7.412 55.542z"/></g></svg>