<svg height="512" viewBox="0 0 60 45" width="512" xmlns="http://www.w3.org/2000/svg"><g id="Page-1" fill="none" fill-rule="evenodd"><g id="037---Sheet" fill-rule="nonzero"><path id="Shape" d="m58.98 39.06c.1222917 1.2637803-.2942704 2.5205058-1.1472141 3.4610285s-2.0631033 1.4775484-3.3327859 1.4789715h-39.61c-7.2910309.0798008-13.37677396-5.5452335-13.87-12.82-.1862668-3.693248 1.15062271-7.3012253 3.69847235-9.9813817s6.08358565-4.197834 9.78152765-4.1986183h35.5c4.2340158.0044568 7.894792 2.9538777 8.8 7.09l.03.16c.1124666.5765595.1693937 1.1625741.17 1.75-.007709 4.9673661-4.0326339 8.992291-9 9h4.31c2.3656032-.0393174 4.3799533 1.7119163 4.67 4.06z" fill="#02a9f4"/><path id="Shape" d="m54.31 35h-3c2.3656032-.0393174 4.3799533 1.7119163 4.67 4.06.1222917 1.2637803-.2942704 2.5205058-1.1472141 3.4610285s-2.0631033 1.4775484-3.3327859 1.4789715h3c1.2696826-.0014231 2.4798422-.5384488 3.3327859-1.4789715s1.2695058-2.1972482 1.1472141-3.4610285c-.2900467-2.3480837-2.3043968-4.0993174-4.67-4.06z" fill="#0377bc"/><path id="Shape" d="m55.8 24.09.03.16c.1124666.5765595.1693937 1.1625741.17 1.75-.007709 4.9673661-4.0326339 8.992291-9 9h3c4.9673661-.007709 8.992291-4.0326339 9-9-.0006063-.5874259-.0575334-1.1734405-.17-1.75l-.03-.16c-.905208-4.1361223-4.5659842-7.0855432-8.8-7.09h-3c4.2340158.0044568 7.894792 2.9538777 8.8 7.09z" fill="#0377bc"/><path id="Shape" d="m58.8 24.09c-.905208-4.1361223-4.5659842-7.0855432-8.8-7.09h-35.5c-6.28189703.0059539-11.73108939 4.3404446-13.15 10.46l3.79-17.76c1.08093475-5.07367534 5.5624571-8.70058182 10.75-8.7h29.22c5.1875429-.00058182 9.6690652 3.62632466 10.75 8.7z" fill="#00bcd4"/><path id="Shape" d="m55.86 9.7c-1.0809348-5.07367534-5.5624571-8.70058182-10.75-8.7h-3c5.1875429-.00058182 9.6690652 3.62632466 10.75 8.7l1.753 8.58c2.1370477 1.2765262 3.6521114 3.3788714 4.187 5.81z" fill="#00838f"/><path id="Shape" d="m1.35 27.46-.07.31" fill="#00bcd4"/><path id="Shape" d="m9.053 11.532c-.0702499.0001027-.14031121-.0072722-.209-.022-.25954922-.0549695-.48661666-.2108263-.6312187-.4332621-.14460205-.2224359-.19488538-.4932172-.1397813-.7527379.79980471-3.68056965 4.0505565-6.31044737 7.817-6.324h8.11c.5522847 0 1 .44771525 1 1s-.4477153 1-1 1h-8.11c-2.8233976.00973154-5.2604283 1.98098165-5.86 4.74-.09811351.4613844-.50529929.7914675-.977.792z" fill="#f5f5f5"/><circle id="Oval" cx="28" cy="5" fill="#f5f5f5" r="1"/><path id="Shape" d="m59.813 24.064-2.974-14.572c-1.1990886-5.52357163-6.0768132-9.47099783-11.729-9.492h-29.22c-5.6517777.02061462-10.52926721 3.96777126-11.728 9.491l-3.862 18.07c-.00149367.0239768-.00149367.0480232 0 .072-.89155926 4.3305429.24739883 8.8309822 3.09161174 12.2160867 2.84421292 3.3851046 7.08098686 5.2827149 11.50038826 5.1509133h39.608c1.5521606.0000785 3.0320928-.6556938 4.0747092-1.8055432 1.0426164-1.1498493 1.5508381-2.6867122 1.3992908-4.2314568-.2694497-2.3221968-1.9571772-4.2306179-4.229-4.782 3.2351253-2.2608816 4.8302342-6.2186499 4.067-10.091-.001-.009.002-.017.001-.026zm-53.695-14.156c.99885555-4.60202029 5.0628591-7.89081891 9.772-7.908h29.22c4.7064855.0164478 8.7693234 3.30131322 9.771 7.9l1.767 8.651c-1.8252421-1.6416276-4.1931173-2.5502392-6.648-2.551h-35.5c-3.972893-.0124555-7.77373859 1.6200982-10.5 4.51-.07.073-.128.153-.2.227zm43.882 24.092h-35.5c-.9891231-.0013491-1.9316296-.420567-2.5950217-1.1542409-.663392-.7336739-.9859039-1.7134944-.8879783-2.6977591.2500148-1.8324115 1.8340079-3.1863106 3.683-3.148h35.3c.5522847 0 1-.4477153 1-1s-.4477153-1-1-1h-35.3c-2.8754286-.0304579-5.31636433 2.1007362-5.674 4.954-.15233826 1.5457899.35532531 3.084015 1.3978393 4.2354654 1.0425139 1.1514504 2.5228832 1.8089956 4.0761607 1.8105346h39.807c1.8493255-.0380567 3.4320028 1.3194465 3.676 3.153.1012165.9861905-.2237209 1.9686438-.893 2.7-.6638785.7291855-1.6038743 1.1454694-2.59 1.147h-39.608c-6.77114281.1123688-12.43780392-5.1111168-12.876-11.869-.16908517-3.4193446 1.07020768-6.7586449 3.42910538-9.2397957 2.3588977-2.4811507 5.63137402-3.887448 9.05489462-3.8912043h35.5c4.4182779.0000001 7.9999998 3.5817221 7.9999998 8s-3.5817219 7.9999999-7.9999998 8z" fill="#000"/></g></g></svg>