<svg id="Capa_1" enable-background="new 0 0 512.066 512.066" height="512" viewBox="0 0 512.066 512.066" width="512" xmlns="http://www.w3.org/2000/svg"><g><g><path d="m219.098 150.771v56.01h-23.71l-50.94-50.94c-2.21-2.21-.62-5.98 2.5-5.95l29.22.36z" fill="#5f99d7"/><path d="m219.098 150.771v56.01h-23.71l-20-20 .78-36.53z" fill="#3c87d0"/><path d="m376.471 463.959h-170.43c-22.337 0-39.752-19.35-37.408-41.563l29.533-241.968h191.296l24.492 242.751c1.852 21.944-15.46 40.78-37.483 40.78z" fill="#ddeafb"/><path d="m413.953 423.178-24.492-242.751h-21.813l24.492 242.751c1.853 21.945-15.46 40.78-37.483 40.78h21.813c22.024.001 39.336-18.835 37.483-40.78z" fill="#cbe2ff"/><path d="m360.194 255.282h-134.439c-4.209 0-7.739 3.177-8.18 7.363l-19.188 162.891c-.298 2.817.887 4.794 1.933 5.956 1.046 1.163 2.888 2.548 5.722 2.548h170.43c2.793 0 4.623-1.353 5.667-2.488s2.238-3.073 2.003-5.856l-15.751-162.88c-.36-4.26-3.923-7.534-8.197-7.534z" fill="#d8ab8c"/><path d="m384.141 425.696-15.751-162.88c-.36-4.26-3.922-7.534-8.197-7.534h-22.951c4.275 0 7.837 3.274 8.197 7.534l15.751 162.88c.235 2.783-.959 4.721-2.003 5.856s-2.874 2.488-5.667 2.488h22.951c2.793 0 4.623-1.353 5.667-2.488 1.044-1.136 2.238-3.073 2.003-5.856z" fill="#c38778"/><path d="m227.399 463.959h-168.123c-15.366 0-27.822-12.456-27.822-27.822 0-6.229 5.049-11.278 11.278-11.278h201.21c6.229 0 11.278 5.049 11.278 11.278 0 15.365-12.456 27.822-27.821 27.822z" fill="#d63030"/><path d="m243.942 424.859h-22.796c6.229 0 11.278 5.049 11.278 11.278 0 15.365-12.456 27.822-27.822 27.822h22.796c15.365 0 27.822-12.456 27.822-27.822 0-6.229-5.049-11.278-11.278-11.278z" fill="#c42d2d"/><path d="m198.165 121.108h191.296v59.319h-191.296z" fill="#5f99d7"/><path d="m367.648 121.108h21.813v59.319h-21.813z" fill="#3c87d0"/><path d="m389.461 121.108h-191.296l-12.736-53.29c-1.693-10.329 6.278-19.714 16.745-19.714h183.277c10.467 0 18.438 9.384 16.745 19.714z" fill="#ddeafb"/><path d="m385.452 48.104h-21.813c10.467 0 18.438 9.384 16.745 19.714l-12.736 53.29h21.813l12.736-53.29c1.693-10.33-6.278-19.714-16.745-19.714z" fill="#cbe2ff"/><g><path d="m488.984 261.716c-7.512 0-14.049-5.351-15.302-12.758-1.797-10.63-5.84-20.768-11.948-29.827l-29.554-43.834c-1.817-2.694-4.842-4.303-8.092-4.303h-34.628v-31.116h34.628c13.59 0 26.292 6.755 33.889 18.023l29.555 43.835c8.588 12.738 14.277 26.99 16.815 41.933 1.606 9.45-5.778 18.047-15.363 18.047z" fill="#ddeafb"/></g><path d="m504.348 243.669c-2.538-14.943-8.227-29.196-16.815-41.933l-29.555-43.835c-7.598-11.268-20.299-18.023-33.889-18.023h-18.294c13.59 0 26.292 6.755 33.889 18.023l29.555 43.835c8.589 12.738 14.277 26.99 16.815 41.933 1.03 6.065-1.653 11.765-6.233 15.08 2.595 1.872 5.777 2.967 9.163 2.967 9.585 0 16.969-8.597 15.364-18.047z" fill="#cbe2ff"/><path d="m174.836 424.859h-62.997c-26.732 0-48.403-21.671-48.403-48.403v-85.243c0-3.903 3.164-7.067 7.067-7.067h145.669c3.903 0 7.067 3.164 7.067 7.067v85.243c0 26.732-21.671 48.403-48.403 48.403z" fill="#fb5858"/><path d="m216.172 284.146h-22.796c3.903 0 7.067 3.164 7.067 7.067v85.243c0 26.732-21.671 48.403-48.403 48.403h22.796c26.732 0 48.403-21.671 48.403-48.403v-85.243c0-3.903-3.164-7.067-7.067-7.067z" fill="#f44545"/></g><g><path d="m511.743 242.413c-2.74-16.13-8.793-31.227-17.991-44.871l-29.556-43.834c-9.006-13.356-23.999-21.33-40.107-21.33h-27.128v-10.385l12.531-52.432c1.233-5.968-.477-14.548-5.392-20.329-4.657-5.483-11.454-8.628-18.648-8.628h-18.045c-4.143 0-7.5 3.358-7.5 7.5s3.357 7.5 7.5 7.5h18.045c4.813.224 9.788 3.761 9.379 10.77l-11.289 47.234h-179.458l-11.288-47.234c-.677-4.004 2.837-10.855 9.379-10.77h129.276c4.143 0 7.5-3.358 7.5-7.5s-3.357-7.5-7.5-7.5h-129.276c-7.194 0-13.991 3.145-18.649 8.628-3.978 4.554-6.867 13.061-5.391 20.329l12.53 52.432v20.927l-43.646-.528c-.035 0-.071 0-.107 0-4.439 0-8.407 2.634-10.129 6.735-1.734 4.131-.808 8.849 2.361 12.019l47.967 47.967-4.824 39.519c-.502 4.112 2.424 7.852 6.535 8.354 4.116.499 7.853-2.424 8.354-6.536l7.632-62.517h177.868l23.813 235.938c.699 8.476-2.085 16.59-7.844 22.854-5.771 6.279-13.647 9.737-22.177 9.737h-120.208c4.063-5.753 6.46-12.762 6.46-20.325 0-10.354-8.424-18.778-18.778-18.778h-31.055c10.972-10.214 17.852-24.767 17.852-40.903v-85.243c0-5.458-3.021-10.218-7.475-12.713l1.773-15.073c.142-1.142 135.605-1.444 135.887.105l15.742 162.799c.167.608-85.442.001-85.742.209-4.143 0-7.5 3.358-7.5 7.5s3.357 7.5 7.5 7.5h85.545c4.326 0 8.308-1.753 11.211-4.935 2.901-3.181 4.298-7.285 3.924-11.636l-15.741-162.791c-.694-8.208-7.429-14.397-15.664-14.397h-134.441c-8.07 0-14.794 6.05-15.629 13.983l-1.751 14.881h-137.875c-8.032 0-14.567 6.535-14.567 14.567v6.574h-24.336c-18.98-.547-35.999 19.44-30.579 39.165l7.445 29.785c2.604 10.412 10.22 18.703 20.4 22.187l32.199 10.885c3.075 6.658 7.416 12.611 12.721 17.55h-31.054c-10.354 0-18.778 8.424-18.778 18.778 0 19.477 15.846 35.322 35.322 35.322l317.192.003c12.591 0 24.699-5.316 33.221-14.586 8.521-9.269 12.8-21.78 11.742-34.324-.004-.041-.008-.082-.012-.123l-24.459-243.935h27.127c11.455 13.135 41.632 56.36 42.199 71.716 1.862 11.013 11.408 19.007 22.697 19.007 6.821 0 13.259-2.991 17.663-8.205 4.368-5.171 6.225-11.949 5.097-18.598zm-478.045 132.31c-5.322-1.821-9.314-6.167-10.679-11.624l-7.445-29.785c-2.433-8.978 4.702-20.603 16.026-20.527h24.335s.109 67.622.313 69.559zm37.237 1.733v-84.81h144.804v84.81c0 22.554-18.35 40.903-40.903 40.903h-62.997c-22.554 0-40.904-18.349-40.904-40.903zm-31.981 59.681c0-2.083 1.695-3.778 3.778-3.778h69.106 62.997 69.106c2.083 0 3.778 1.695 3.778 3.778 0 11.206-9.116 20.322-20.322 20.322h-168.121c-11.206 0-20.322-9.117-20.322-20.322zm343.007-307.529v44.319h-176.296v-44.319zm-225.238 28.902 33.941.411v22.082l-1.245 10.203zm338.464 93.823c-1.007 1.11-2.837 2.481-6.204 2.883-3.88 0-7.279-2.798-7.906-6.508-1.992-11.781-6.407-22.807-13.124-32.771l-29.556-43.835c-3.214-4.765-8.563-7.609-14.31-7.609h-27.127v-16.115h27.128c11.113 0 21.457 5.501 27.67 14.716l29.556 43.834c7.998 11.863 13.26 24.984 15.64 38.997.393 2.317-.234 4.593-1.767 6.408z"/><path d="m77.83 254.288c4.143 0 7.5-3.358 7.5-7.5v-29.683c0-4.142-3.357-7.5-7.5-7.5s-7.5 3.358-7.5 7.5v29.683c0 4.142 3.357 7.5 7.5 7.5z"/><path d="m110.584 254.288c4.143 0 7.5-3.358 7.5-7.5v-45.377c0-4.142-3.357-7.5-7.5-7.5s-7.5 3.358-7.5 7.5v45.377c0 4.142 3.357 7.5 7.5 7.5z"/><path d="m143.338 254.288c4.143 0 7.5-3.358 7.5-7.5v-29.683c0-4.142-3.357-7.5-7.5-7.5s-7.5 3.358-7.5 7.5v29.683c0 4.142 3.357 7.5 7.5 7.5z"/></g></g></svg>